<?xml version="1.0" encoding="utf-8"?>
<!-- Generator: Adobe Illustrator 21.0.2, SVG Export Plug-In . SVG Version: 6.00 Build 0)  -->
<svg version="1.1" id="Lager_1" xmlns="http://www.w3.org/2000/svg" xmlns:xlink="http://www.w3.org/1999/xlink" x="0px" y="0px"
	 viewBox="0 0 499.8 331" style="enable-background:new 0 0 499.8 331;" xml:space="preserve">
<style type="text/css">
	.st0{fill:none;stroke:#05773B;stroke-width:1.5;}
</style>
<g>
	<path vector-effect="non-scaling-stroke" class="st0" d="M450.8,179.6c0,0.4,0,1.2,0,1.9c-0.1,0.3-0.2,0.5-0.4,0.8
		c-0.3,0.5-0.6,0.9-0.9,1.4c-0.2,0.4,0,1-0.4,1.4c-0.2,0.4-0.2,0.9-0.4,1.4c-0.2,0.4-0.3,1-0.3,1.4c-0.1,0.9-0.5,1.6-0.9,2.2
		c-0.4,0.6-0.7,1.2-1.1,1.9c0.1,0.9-0.3,1.8-0.7,2.7c-0.4,1-0.8,2-1.1,3c-0.5,1.3-1.1,2.5-1.6,3.8c-0.5,1.1-0.9,2.2-1.3,3.2
		c-0.1,0.2-0.2,0.4-0.2,0.6c0,1.2-0.6,2.2-0.7,3.4c0,0.4-0.4,0.7-0.5,1c-0.3,0.7-0.6,1.3-0.7,2c-0.1,0.9-0.4,1.6-0.9,2.2
		c-0.8,1-1.1,2.2-1.4,3.4c-0.2,1-0.6,2.1-0.8,3.1c-0.1,0.7-0.5,1.4-0.8,2.1c-0.3,0.8-0.8,1.5-0.9,2.4c-0.1,0.5-0.4,1-0.6,1.5
		c-0.3,0.8-0.7,1.5-1,2.2c0,0.3,0,0.7,0,1c0,0.4,0,0.9-0.1,1.3c-0.2,0.5-0.1,1-0.2,1.4s-0.3,0.8-0.4,1.2c-0.3,0.8-0.6,1.5-0.6,2.3
		c0,0.4-0.3,0.8-0.3,1.2c0,0.7-0.5,1.2-0.4,1.9c-0.3,0.6-0.2,1.3-0.4,1.9c-0.2,0.5-0.2,1-0.3,1.6c0,0.7,0.1,1.3-0.3,1.9
		c-0.1,0.1,0,0.3,0,0.5c0,0.5,0.1,1-0.3,1.4c-0.1,0.2-0.1,0.4-0.1,0.6c0.1,1.3-0.4,2.5-1,3.7c-0.1,0.5,0,1-0.3,1.6
		c-0.2,0.4-0.1,1-0.1,1.4c0.1,1.5-0.3,3-0.8,4.4c-0.2,0.7-0.5,1.4-0.8,2.1c0,0.1-0.1,0.2-0.1,0.3c0.1,1-0.5,1.8-0.4,2.7
		c0.1,0.5-0.4,1-0.3,1.6c0.1,0.5,0.1,1.1,0,1.6c0,0.5-0.2,0.9-0.3,1.4c-0.1,0.5,0,1,0,1.5c-0.5,0.7-0.1,1.5-0.5,2.2
		c-0.1,0.2-0.1,0.5-0.1,0.8c0,0.7,0,1.4,0,2.1s0.2,1.4-0.3,2.1c0,0.7-0.2,1.4-0.4,2c-0.1,0.3-0.3,0.6-0.3,0.9c0,0.9-0.5,1.8-0.4,2.7
		c0.1,0.7,0,1.4,0,2.1c0,0.5-0.4,1-0.3,1.6s-0.1,1-0.3,1.6c-0.2,0.4,0,1-0.3,1.4s0,1-0.4,1.4c-0.2,0.2-0.1,0.6-0.1,1
		s0.1,0.9-0.2,1.2c-0.1,0.1-0.1,0.2-0.1,0.3c0,0.7,0.1,1.5-0.1,2.1c-0.2,0.7-0.2,1.4-0.3,2.1c0,0.3-0.1,0.6-0.2,1
		c0,0.3-0.1,0.5-0.2,0.8c0,0.7,0.1,1.3-0.3,1.9c0.1,0.7-0.3,1.1-0.6,1.7c-0.5,1.1-0.7,2.3-1.1,3.5c-0.1,0.3,0,0.6,0,0.8
		c0,0.5,0,1-0.1,1.4c-0.3,1.1-0.5,2.3-1.2,3.3c-0.4,0.7-1,1.3-1.4,1.9c-0.3,0.4-0.6,0.8-0.9,1.2c0.2,0.9-0.3,1.8-0.3,2.7
		c-0.1,0.9-0.5,1.7-0.8,2.6c-0.2,0.8-0.6,1.6-1,2.3c-0.3,0.5-0.5,1-0.5,1.5c0,0.2-0.1,0.4-0.2,0.6c-0.8,1.6-1.4,3.2-1.9,4.9
		c-0.3,1-0.7,1.8-1.6,2.4c-0.4,0-0.8,0-1.3,0c-0.2-0.2-0.4-0.4-0.7-0.6c-0.2-0.4-0.3-0.9-0.5-1.4c0-0.7,0-1.7,0-2.6
		c0-0.6,0.4-1.1,0.3-1.7c-0.1-0.5-0.1-1.1,0-1.6c0.4-1.2,0.2-2.3,0.3-3.5c0-0.2,0-0.4,0-0.5c0.5-1,0.2-2,0.3-3c0-0.3,0-0.7,0.2-1
		s0.1-0.6,0.1-1c0-0.7,0-1.4,0-2.1c0-0.6-0.1-1.2,0.3-1.7c0.1-0.2,0.1-0.5,0.1-0.8c0-0.8,0-1.6,0-2.4s-0.1-1.6,0.3-2.4
		c0.2-0.5,0-1.1,0.1-1.6c0-0.7-0.1-1.3,0.3-1.9c0.2-0.4,0-1,0.1-1.4c0.1-0.9-0.2-1.7,0.3-2.5c0.1-0.2,0-0.5,0-0.8c0-1.1,0-2.2,0-3.2
		c0-0.7-0.2-1.4,0.3-2.1c0-0.6,0-1.1,0-1.6s-0.1-1.1,0.2-1.6c0.1-0.3,0.1-0.6,0.1-1c0-1.6,0-3.2,0-4.9c0-0.4,0-0.9,0.2-1.3
		c0.1-0.3,0.1-0.6,0.1-1c0-1.6,0.1-3.2,0-4.9c0-1,0.3-1.9,0.5-2.8c0.1-0.4,0.3-0.8,0.5-1.2c0.2-0.7,0.6-1.4,0.7-2.1
		c0.1-0.8,0-1.5,0.1-2.3c0-0.7-0.1-1.5,0.3-2.2c0.2-0.5-0.1-1.2,0.3-1.7c0.3-0.5,0.1-1,0.4-1.5c0.2-0.3,0-0.8,0.1-1.1
		c0.1-0.7-0.2-1.4,0.3-2.1c0.1-0.2,0-0.5,0-0.8c0-0.5,0-1,0.3-1.4c0.1-0.2,0.1-0.5,0.1-0.8c0-0.6,0-1.2,0-1.8c0-0.4-0.1-0.9,0-1.1
		c0.3-0.6,0.3-1.1,0.5-1.7c0.4-1.2,0.9-2.3,1.2-3.4c0-0.2,0.2-0.3,0.2-0.4c0-0.6,0-1.1,0-1.6s0.4-1,0.3-1.6
		c-0.1-0.5-0.1-1.1,0.3-1.6c0.1-0.2,0-0.5,0.1-0.8c0.1-0.8-0.2-1.5,0.3-2.2c-0.1-1,0.2-2.1-0.2-3.1c-0.3-0.7-0.3-1.4,0-2.1
		c0.4-0.9,0.2-1.8,0.2-2.7c0-0.7-0.4-1.3-0.6-2.2c0-2.1,0-4.4,0-6.8c0-0.4,0-0.9,0.2-1.3c0.1-0.2,0.1-0.5,0.1-0.8c0-0.8,0-1.5,0-2.3
		c0-0.3,0-0.6,0-0.8c0.1-0.6,0.6-1.2,0.2-1.9c-0.4-0.6,0-1.3-0.4-1.9c-0.1-0.2-0.1-0.5-0.1-0.8c0-1.2-0.1-2.4,0-3.6
		c0.1-1-0.3-2-0.4-3c-0.4-0.4-0.3-0.9-0.3-1.4c0-0.6,0-1.1,0-1.6c0-0.2,0.1-0.5,0-0.7c-0.5-1.2-0.2-2.4-0.3-3.7c0-0.5,0.1-1-0.1-1.5
		c-0.3-0.8-0.4-1.6-0.7-2.3c-0.3-0.7-0.6-1.4-0.9-2.1c0.2-1.4-0.3-2.7-0.7-4c-0.3-0.8-0.5-1.6-0.6-2.5c-0.1-0.6-0.4-1.2-0.7-1.8
		c-0.6-1.2-1-2.4-1.3-3.7c-0.2-0.9-0.6-1.6-1.1-2.3c-0.6-0.9-1-1.7-1.2-2.7c-0.1-0.8-0.6-1.6-1-2.4c-0.5-0.5-0.8-1-1.5-1.2
		c-0.1,0-0.2-0.1-0.3-0.2c-0.7-0.6-3-3.5-3.6-4.5c-0.7-1.2-1.3-2.5-2.1-3.6c-0.1-0.1-0.1-0.2-0.1-0.3c-1-0.9-1.6-2.2-2.7-3
		c-0.2-0.2-0.4-0.4-0.6-0.5c-1-0.5-1.5-1.3-2-2.3c-0.6-0.5-1-1.2-1.8-1.5c-0.3-0.1-0.5-0.5-0.7-0.7c-0.9-0.8-1.6-1.7-2.6-2.4
		c-0.8-0.5-1.4-1.2-2-1.9c-0.8-0.8-1.7-1.4-2.6-1.9c-0.6-0.4-1.2-0.7-1.8-1.1c-0.4,0-0.7,0-1.2,0c-0.9,1-2.2,1.4-3.5,2.1
		c-0.2,0.3-0.6,0.6-0.8,0.9c-0.7,0.3-1.2,0.6-1.8,0.9c-0.5,0-1.1,0-1.7,0c-0.4,0.5-0.6,0.9-0.6,1.5s-0.4,1.6-0.8,2.1
		c-0.6,0.9-1.1,1.7-1.5,2.6c-0.4,1-1,1.7-2,2.2c-1,1.5-2.1,3-2.7,4.7c-1.6,1.3-2.4,3.1-3.3,4.9c-0.6,0.4-1.3,0.8-1.8,1.5
		c0,0.4,0,1,0,1.2c-0.8,1.5-1.5,2.8-2.1,4.1c-0.4,0.9-0.8,1.8-1.2,2.6c-0.4,0.8-0.7,1.7-1,2.5c-0.1,0.3-0.2,0.5-0.3,0.7
		c-0.5,0.8-0.7,1.8-0.9,2.7c-0.1,0.5-0.2,1-0.5,1.4c-0.5,0.8-0.8,1.8-1.4,2.5c-0.3,0.3-0.6,0.8-0.8,1.1c0.1,1.2-0.4,2.9-1,4.1
		c-0.7,1.2-1.3,2.5-1.7,3.8c-0.2,0.7-0.8,1.3-1.2,2c0,0.6,0,1.3,0,1.9c-0.3,0.6-0.6,1.1-0.8,1.6c-0.5,0.4-1,0.7-1.3,1
		c-0.3,1-0.6,2-0.9,2.9c-0.6,0.6-0.8,1.4-1.2,2.1c0.2,0.6,0.6,1.3,0.3,2c-0.3,0.7-0.2,1.4-0.6,2s-0.8,1.2-1.3,1.6c0,0.4,0,0.7,0.1,1
		c0.3,0.8,0.3,1.5,0,2.3c-0.4,1-0.5,2.2-1,3.2c-0.1,0.1-0.1,0.3-0.1,0.5c0.1,1.4-0.5,2.6-1,4.1c-0.1,0.6,0.2,1.4-0.3,2.2
		c0.2,1-0.4,1.9-0.4,2.9c0,0.5-0.2,0.9-0.3,1.4c-0.1,0.5,0.1,1-0.2,1.4c-0.1,0.2-0.1,0.5-0.1,0.8c0,0.5,0.1,1.1-0.3,1.6
		c-0.1,0.2,0,0.4-0.1,0.7c0,0.7,0.1,1.4-0.3,2.1c-0.1,0.2,0,0.5,0,0.8c0,0.7-0.4,1.3-0.5,2c-0.1,0.4-0.4,0.8-0.7,1.1
		c-0.5,0.5-1,1-1.4,1.5c-0.7,0.3-1.2,0.6-1.8,0.9c-1.7-0.3-2.1-1.6-2.6-3.1c0-3.9,0-8,0-12.1c0-1.7,0-3.5,0-5.2
		c0-0.9-0.2-1.9,0.3-2.7c-0.1-1.3,0.3-2.7-0.2-4c-0.2-0.6-0.2-1.2,0-1.7c0.2-0.4,0.2-0.7,0.2-1.1c0-2.2,0-4.3,0-6.5
		c0-0.3,0-0.6-0.1-0.8c-0.3-0.5-0.2-1-0.2-1.4c0-1.4,0-2.7,0-4.1c0-0.6,0.1-1.2-0.3-1.7c-0.1-0.1,0-0.2,0-0.3
		c-0.1-0.6,0.1-1.3-0.2-1.9c-0.3-0.5,0.1-1.2-0.4-1.7c0-0.7-0.1-1.3,0.1-1.9c0.3-1.2,0.3-1.4,0-2.5c-0.1-0.3-0.1-0.5-0.1-0.8
		c0-0.9,0-1.9,0-2.8c0-0.9,0.1-1.7-0.3-2.5c-0.2-0.4,0-0.9,0-1.3c0-0.8,0.2-1.5-0.3-2.2c-0.1-0.2,0-0.5,0-0.8c0-1.1,0-2.3,0-3.4
		c0-0.5,0-1-0.2-1.6c-0.2-0.5-0.1-1.1-0.1-1.6c0.2-1.4-0.3-2.6-0.8-3.9c-0.1-0.4-0.3-0.7-0.6-1.1c-0.1-0.8,0.1-1.6-0.3-2.5
		c-0.2-0.4,0-1,0-1.5c-0.5-1.1-1.1-2.1-1.3-3.2c-0.1-0.5-0.4-0.9-0.6-1.4c0-0.4,0-0.8,0-1.2c0.1-0.9-0.3-1.7-0.6-2.5
		c-0.2-0.6-0.6-1.1-0.8-1.8c-0.2-0.6-0.3-1.2-0.5-1.9c-0.2-0.6-0.1-1.3-0.2-1.9c-0.3-0.6-1-0.9-1.5-1.2c-0.5,0-1-0.1-1.6,0.1
		c-0.1,0.9,0,1.8-0.1,2.5c-0.6,0.9-1.1,1.7-1.6,2.4c0,0.5,0,1,0,1.4c-0.4,0.8-0.7,1.5-1,2.1c-0.1,0.1-0.2,0.3-0.2,0.4
		c0,1-0.7,1.8-1,2.8c0.1,0.3,0.2,0.6,0.3,1c-0.4,0.9-0.3,1.8-0.6,2.7c-0.1,0.3-0.1,0.6-0.3,0.9c-0.4,0.7-0.7,1.3-1,2.1
		c0,0.6,0,1.2,0,1.9c0,0.5,0,1-0.2,1.6c-0.2,0.4-0.1,1-0.1,1.4c0.1,0.9-0.2,1.7-0.5,2.5c-0.1,0.3-0.1,0.7-0.3,0.9
		c-0.4,0.7-0.2,1.2,0.1,1.9c-0.2,0.8-0.4,1.6-0.8,2.4c-0.3,0.6-0.2,1.3-0.6,1.8s-0.6,1.1-0.8,1.8c-0.1,0.5-0.4,0.9-0.8,1.2
		c-0.8,0.8-1.6,1.6-2.3,2.3c-0.5,0.3-0.9,0.5-1.6,0.8c-0.1,0.1-0.3,0.4-0.6,0.7c-0.7,0.8-1.6,1.4-2.5,2c-0.4,0.3-0.8,0.6-1.1,0.9
		c-0.4,0.1-0.8,0.3-1.3,0.4c-0.2-0.1-0.5-0.3-0.8-0.3c-0.8-0.1-1.4-0.6-1.9-1.1c-0.7-0.7-1.5-1.4-2.2-2.1c-0.4-1-1-1.9-1.3-2.9
		c-0.2-0.7-0.3-1.2,0-1.9c0.2-0.4,0.2-0.7,0-1.1c-0.1-0.2-0.3-0.4-0.2-0.6c0.1-0.5-0.4-0.9-0.4-1.4c0-0.6,0-1.2,0-1.8
		c0-0.8,0.2-1.5-0.3-2.2c-0.1-0.2,0-0.4,0-0.7c0-0.7,0.1-1.3-0.3-1.9c-0.1-0.2,0-0.5,0-0.8c0-0.9,0-1.9,0-2.7
		c-0.2-0.7-0.6-1.2-0.6-1.9c-0.1-0.7-0.4-1.2-0.4-1.9c0-0.9-0.5-1.7-1-2.6c0-0.7,0-1.3,0-2.1c-0.3-0.3-0.5-0.6-0.8-0.8
		c-0.7-0.1-1.2-0.2-1.8,0.2c-0.9,0.1-1.7,0.7-2.6,0.7c-0.4,0-0.8,0.2-1,0.5c-1.1,1.1-2.6,1.6-4.1,2.1c-0.2,0.1-0.4,0.1-0.6,0.3
		c-0.7,0.6-1.5,1-2.3,1.3c-1,0.5-2,0.8-3,1.1c-0.8,0.3-1.7,0.5-2.3,1.1c-0.3,0.3-0.6,0.5-1,0.6c-0.3,0.1-0.6,0.2-0.9,0.3
		c-1,0.5-2.1,1-3,1.5s-1.9,0.9-2.8,1.2c-0.5,0-1,0-1.5,0c-0.7,0.3-1.2,0.6-1.6,1.1c-0.9,0.9-1.9,1.6-3.1,1.9
		c-0.6,0.2-1.1,0.6-1.8,0.9c-0.6,0-1.3,0-2.1,0c-0.3,0.3-0.7,0.6-0.8,0.9c-0.4,0.8-1,1.1-1.7,1.3s-1.3,0.5-2,0.3
		c-1,1.1-2.2,1.9-3.5,2.5c-0.3,0.1-0.5,0.4-0.8,0.5c-0.4,0.2-0.8,0.5-1.1,0.6c-0.7,0.2-1.3,0.6-1.8,1.1c-0.3,0.4-0.7,0.7-1.1,1.1
		c-1.3,0.6-2.6,1.4-4.2,1.9c-0.2,0.2-0.4,0.4-0.7,0.7c-0.6,0.5-1,1.1-1.7,1.5c-0.7,0.3-1,1-1.8,1.4c-0.5,0.3-1,0.8-1.3,1.2
		c-0.7,1.1-1.6,2-2.2,3.1c-0.4,0.6-0.9,1-1.5,1.4c-1,0.6-2,1.3-2.8,2.3c-0.1,0.8-0.6,1.4-1.1,2c-1.3,1.3-2.2,2.9-3.7,4
		c-0.3,0.7-0.6,1.3-1,1.9c-0.3,0.5-0.5,1-0.7,1.6c-0.5,1.8-1.6,3.1-3,4.3c-0.5,0-1,0-1.6,0c-0.6-0.3-0.9-0.9-1.2-1.7
		c0-0.4,0-1,0-1.6c0-0.3,0-0.6,0.1-0.8c0.3-0.5,0.3-1,0-1.5c-0.1-0.2-0.1-0.4-0.1-0.6c-0.1-0.9,0.2-1.7-0.3-2.5
		c0.1-0.8-0.2-1.6,0.2-2.4c0.2-0.4,0.1-0.9,0.1-1.3c0-0.7-0.2-1.4,0.2-2.1c0.3-0.6,0-1.3,0.4-1.9c0.1-0.2,0.1-0.5,0.1-0.8
		c-0.1-1,0.3-2,0.7-3c-0.2-0.5-0.4-1-0.6-1.5c-0.1-0.2-0.1-0.5-0.1-0.6c0.5-1.3,0.5-2.7,1.3-4c0-0.5,0-1,0-1.5
		c-0.1-1.1,0.2-2.1,0.5-3.1c0.3-0.9,0.6-1.7,0.5-2.7c0-0.5,0-1,0.2-1.4s0-1,0-1.6c-0.2-0.1-0.4-0.4-0.7-0.5c-1.1-0.6-2.1-1.3-3-2.2
		c-0.8-0.9-1.7-1.7-2.5-2.5c-0.6-0.2-1.1-0.3-1.5-0.7c-0.6-0.5-1.2-0.7-1.9-0.9c-1-0.3-1.6-0.8-2.2-1.6c-0.7-1-1.5-1.8-2.7-2.1
		c-0.8-0.2-1.4-0.7-2.3-1.1c-0.5-0.7-1.2-1.4-1.8-2.2c-0.7-0.2-1.3-0.6-2-0.5c-1,0.5-1.7,1.2-2.5,1.8s-1.6,1.3-2.1,2.2
		c-0.4,0.7-1,1.1-1.4,1.5c-1,0.6-1.8,1-2.6,1.5c-0.4,0.7-0.8,1.5-1.3,2.2s-0.9,1.4-1.5,1.9s-1.1,1.1-1.6,1.6
		c-0.2,0.2-0.5,0.5-0.7,0.7c-0.3,0.8-1,1.1-1.8,1.5c-0.7,0-1.4,0-2.2,0c-1-0.4-1.8-1.1-2.2-2.1c0-0.8-0.5-1.5-0.4-2.3
		c0-0.2,0-0.4,0-0.7c0.6-1.1,1.2-2.3,1.8-3.5c0.2-0.4,0.4-0.8,0.7-1.1s0.5-0.6,0.6-0.9c0.2-0.4,0.4-0.8,0.7-1
		c0.2-0.1,0.3-0.3,0.4-0.5c0.5-1.1,1.2-2.1,1.4-3.2c0.1-0.3,0.2-0.5,0.2-0.8c0-0.8,0.3-1.5,0.9-2c0.1-0.1,0.2-0.2,0.2-0.2
		c0.3-0.8,0.6-1.3,0.9-2.1c0-0.1,0-0.4,0-0.9c-0.1-0.1-0.3-0.3-0.4-0.4c-0.7,0.2-1.3,0.5-1.7,1c-0.7,0.9-1.8,1.4-2.6,2.2
		c-0.8,0.3-1.2,0.9-1.7,1.4s-1,1-1.5,1.5c-0.5,0.4-1.2,0.8-1.7,1.2c-1.4,1.2-3,2.1-4.2,3.5c-0.5,0.6-1.2,1-1.7,1.4
		c-0.6,0.5-1,1.1-1.6,1.6c-0.8,0.7-1.7,1.3-2.6,1.9c-0.5,0.3-0.8,0.6-1.1,1.1c-0.3,0.6-0.9,1-1.2,1.4c-0.4,0.2-0.6,0.3-0.8,0.4
		c-0.6,0.2-0.9,0.6-1.2,1c-0.7,1-1.3,2.1-2,3.1c-0.7,0.9-1.4,1.6-2.3,2.3c-0.7,0.5-1.5,0.8-2.4,0.8c-0.8,0-1.6,0-2.4,0
		c-0.7,0.3-1.2,0.5-1.7,1.3c0,0.9,0,1.9,0,2.9c0,0.2,0,0.4,0.1,0.5c0.4,0.6,0.3,1.1,0.3,1.7c0,0.6,0,1.1,0,1.6c-0.1,1,0.2,2,0.5,3
		c0.2,0.8,0.3,1.6,0,2.3c-0.2,0.5-0.3,1,0,1.4c0.3,0.7,0.2,1.3,0.2,1.9c0,0.6,0.1,1.2-0.3,1.7c-0.1,0.1-0.1,0.3-0.1,0.5
		c0.1,1.6-0.5,3-0.9,4.5c-0.1,0.6-0.3,1.1,0,1.6c0.2,0.4,0.2,0.7,0.2,1.1c0,1.1,0,2.3,0,3.4c0,0.4,0,0.9-0.2,1.3
		c-0.2,0.3-0.1,0.8-0.1,1.1c-0.1,0.7,0.2,1.3-0.1,1.9c-0.3,0.6,0.1,1.3-0.4,1.9c-0.1,0.7-0.2,1.4-0.4,2s-0.2,1.3-0.4,1.9
		c-0.2,0.4-0.3,0.8-0.2,1.2c0.1,1-0.4,1.8-0.4,2.7c-0.5,0.5-0.1,1.2-0.4,1.7c-0.3,0.6-0.3,1.2-0.2,1.8c0.1,1.2-0.4,2.2-0.4,3.3
		c-0.4,0.5-0.3,1.1-0.3,1.7c0,1.6,0,3.2,0,4.9c0,0.8-0.1,1.6,0.3,2.4c0.2,0.5,0,1.1,0.1,1.6c0,0.7-0.1,1.3,0.3,1.9
		c0.1,0.2,0,0.5,0.1,0.8c0,0.5-0.1,1,0.2,1.4c0.1,0.2,0.1,0.5,0.1,0.8c0,0.4,0,0.8,0.2,1.1c0.1,0.2,0.1,0.5,0.1,0.8
		c0,0.6,0,1.2,0,1.8s-0.1,1.2,0.2,1.7s0,1,0.3,1.6c0.2,0.2,0.2,0.7,0.1,0.9c-0.3,0.5-0.2,1-0.3,1.4c-0.1,1.1-0.6,2.2-1.2,3.1
		c-0.1,0.2-0.4,0.5-0.6,0.6c-0.8,0.3-1.3,1-1.6,1.7c-0.1,0.2-0.3,0.3-0.4,0.5c-0.2,0.7-0.8,1-1.4,1.3c-0.3,0.1-0.6,0.3-0.9,0.5
		c-0.2,0-0.5,0-0.8,0c-0.1,0-0.2-0.1-0.3-0.1c-0.8-0.7-1.5-1.5-1.8-2.6c-0.1-0.5-0.4-0.9-0.8-1.2c-0.3-0.3-0.7-0.6-0.9-0.8
		c-0.4-1-1-1.9-1.2-2.9c-0.1-0.3-0.3-0.6-0.5-0.9c-0.9-0.9-1.4-2-2-3.2c0-0.4,0-0.9,0-1.3c-0.4-0.7-0.7-1.4-1.1-2
		c-0.3-0.4-0.4-0.8-0.5-1.3c-0.2-1-0.5-2-1.1-2.8c-0.5-0.6-0.7-1.3-1-2c-0.2-0.5-0.4-0.9-0.5-1.4s-0.5-0.9-0.4-1.4
		c0.1-0.4,0-0.9,0-1.2c-0.4-0.9-1.4-1-1.9-1.8c-0.3-1.4-1-2.7-1.7-4c0-0.6,0-1.3,0-1.9c-0.2-0.3-0.3-0.7-0.5-1
		c-0.5-0.7-1-1.3-1.1-2.1s-0.7-1.4-0.3-2.1c-0.6-1-1-1.8-1.2-2.7c-0.1-0.3-0.2-0.7-0.1-1c0.5-0.8,0.2-1.7,0.3-2.6
		c-0.5-0.7-0.6-1.5-0.8-2.2c-0.2-0.8-0.5-1.5-0.8-2.4c0-0.8,0-1.8,0-2.7c-0.4-1.1-0.9-2.2-1.3-3.3c0-0.5,0-1,0-1.6
		c-0.5-1-1.1-1.9-1.6-2.8c-0.1-0.9,0.1-1.7-0.3-2.5c0.1-0.6-0.3-1-0.5-1.5c-0.2-0.4-0.5-0.8-0.5-1.2c-0.1-0.8-0.6-1.4-0.3-2.2
		c-0.5-0.8-0.9-1.4-1.3-2.2c0-0.8,0-1.6,0-2.2c-0.3-0.9-0.6-1.5-0.8-2.2c-0.3-0.9-0.7-1.7-1-2.5c-0.2-0.6-0.4-1.2-0.5-1.8
		c-0.2-0.6-0.4-1.1-0.4-1.7c0-0.4-0.1-0.9-0.4-1.2c-0.4-0.5-0.1-1-0.4-1.4c-0.3-0.5-0.1-1-0.2-1.4c-0.2-1.1-0.5-2.2-1.5-2.9
		c-0.2,0-0.3,0-0.6,0c-0.4,0.3-0.8,0.7-1,0.9c-0.5,1-0.6,2-0.6,2.9c0,0.3,0.1,0.5,0.2,0.8c0.3,0.7,0.3,1.4,0.1,2.1
		c-0.2,0.5-0.2,1-0.2,1.6c0,0.8,0.1,1.5-0.3,2.2c-0.1,0.2,0,0.5,0,0.8c0,1.1,0,2.3,0,3.4c0,0.7,0.1,1.3-0.3,1.9
		c-0.2,0.2-0.1,0.7-0.1,1c0,1.2,0,2.4,0,3.6c0,0.5,0.1,1.1-0.2,1.6c-0.1,0.1-0.1,0.3-0.1,0.5c0,0.6,0,1.2,0,1.8
		c-0.1,0.5-0.3,1-0.3,1.6c-0.1,0.6-0.4,1.2-0.6,2.1c0,0.2,0,0.7,0,1.2c0,0.9,0.2,1.7-0.3,2.5c0.1,0.9-0.4,1.7-0.5,2.5
		c0,0.2-0.2,0.3-0.2,0.5c0.1,1-0.3,1.8-0.4,2.7s-0.4,1.8-0.7,2.6c-0.3,1.1-0.5,2.2-0.9,3.2c-0.4,1.3-0.9,2.5-1.5,3.7
		c-0.6,1.1-1,2.2-1.4,3.4c-0.2,0.6-0.1,1.1-0.3,1.7c-0.2,0.5-0.1,1.2-0.2,1.9c-0.3,1.1-0.9,2.2-1.5,3.3c-0.3,0.5-0.3,1.1-0.5,1.7
		c-0.3,1-0.7,2-1,3c-0.1,0.2-0.2,0.3-0.2,0.5c-0.1,1.5-0.7,2.8-1.3,4.1c-0.3,0.7-0.6,1.3-0.7,2.1c0,0.3-0.2,0.6-0.3,0.9
		c-0.5,1.4-0.8,2.9-1.3,4.3c-0.6,1.6-1.2,3.2-1.7,4.8c-0.2,0.6-0.6,1.1-1.1,1.6c-0.7,0.7-1.1,1.4-1.3,2.3c-0.3,1-0.7,2-1,3
		c0,0.1-0.1,0.2-0.1,0.3c-0.1,1.6-0.7,3.1-1.5,4.5s-1.2,2.8-1.8,4.3c-0.1,0.4-0.3,0.8-0.5,1.2c-0.6,1.2-1.2,2.4-1.8,3.6
		c-0.6,1.3-1.3,2.6-2.2,3.7c-0.2,0.3-0.3,0.6-0.5,0.9c0,0.5,0.2,1.2,0,1.7c-0.4,1.2-0.2,2.5-0.3,3.8c-0.5,0.8-0.5,1.9-0.9,2.9
		c-0.3,0.8-0.4,1.5-0.7,2.3c-0.2,0.7-0.6,1.3-0.6,2s-0.4,1.3-0.4,2.1c0,0.6-0.3,1.2-0.5,1.9c-0.4,1.4-0.7,2.9-1.5,4.2
		c-0.1,0.9-0.7,1.7-0.7,2.6c-0.5,0.9-0.7,1.9-0.9,2.9c-0.3,1.1-0.6,2.2-1.2,3.3c-0.3,0.3-0.6,0.7-0.9,1c-0.4,0-0.7,0-1,0
		c-0.9-0.5-1.1-1.4-1.6-2.2c0-1.9,0-3.9,0-5.8c0-0.9,0.5-1.7,0.4-2.5c0.5-0.9,0.5-1.9,0.9-2.7c0.2-0.3,0.3-0.7,0.3-1.1
		c0.1-0.4,0-0.9,0-1.3c0-0.9,0-1.7,0-2.6c0-0.5-0.1-1,0.2-1.4c0.1-0.1,0.1-0.2,0.1-0.3c0.1-0.6,0-1.1,0.3-1.7
		c0.2-0.5,0.2-1.1,0.3-1.7c0.2-0.7,0.1-1.4,0.1-2.1c0-0.4-0.1-0.9,0.2-1.3c0.1-0.2,0.1-0.4,0.1-0.6c-0.1-1.1,0.2-2.2,0.6-3.3
		c0-0.1,0.1-0.2,0.1-0.3c0-0.7,0-1.4,0.2-2.1s0.2-1.3,0.2-1.9c-0.1-1.1,0.4-2.1,0.4-3.2c0.5-0.5,0.2-1.3,0.6-1.8
		c0.2-0.3,0.3-0.7,0.3-1c0.1-0.4,0-0.9,0-1.3c0-0.8,0-1.5,0-2.3c0-0.5-0.1-1,0.2-1.4c0.1-0.2,0.1-0.5,0.1-0.8c0-0.8,0-1.5,0-2.3
		c0-0.7,0-1.3,0.3-1.9c0.2-0.5,0.1-1.1,0.1-1.6s-0.1-1.1,0.2-1.6c0.2-0.3,0.1-0.6,0.1-1c0-1.7,0-3.5,0-5.2c0-0.4,0-0.9,0.2-1.3
		c0.1-0.3,0.1-0.6,0.1-1c0.1-0.9-0.2-1.7,0.3-2.5c0-1,0-2,0-2.9c-0.2-0.6-0.5-1-0.6-1.6c-0.2-0.9-0.5-1.6-0.4-2.5c0.1-1,0-2,0-2.9
		c0-0.6,0.1-1.2-0.3-1.7c-0.1-0.2-0.1-0.4-0.1-0.6c0-0.5,0-1,0-1.5c0-0.8,0.1-1.5-0.3-2.2c-0.2-0.4,0-0.9-0.1-1.3
		c0-0.4-0.4-0.7-0.3-1.1c0.1-0.7-0.5-1.3-0.3-2.1c0.1-0.7,0-1.3,0-2c0-0.2,0-0.4,0-0.5c-0.5-0.9-0.2-1.9-0.3-2.9
		c0-0.5,0.1-1.1-0.2-1.6c-0.1-0.2-0.1-0.4-0.1-0.6c0-0.6,0-1.1,0-1.6c0.1-1.1-0.2-2.1-0.7-3.1c0-0.9,0-1.7,0-2.4
		c-0.3-0.8-0.5-1.5-0.8-2.1c-0.2-0.5-0.2-1-0.1-1.6c0.1-0.3,0.2-0.5,0.2-0.8c0-1.3,0-2.6,0-3.9c0-0.6-0.4-1.2-0.3-1.9
		c0.1-0.6,0-1.2,0-1.8c0-0.5-0.4-0.9-0.3-1.4c0.1-0.4,0-0.9,0-1.3c0-0.2-0.2-0.4-0.2-0.6c-0.1-0.6-0.2-1.3,0.1-1.9
		c0.1-0.3,0.2-0.7,0.1-1c-0.3-0.5-0.1-1-0.4-1.4s-0.1-0.9-0.3-1.2c-0.3-0.5-0.2-0.9-0.3-1.4c-0.1-0.5-0.2-1-0.3-1.6
		c-0.1-0.5,0.1-1-0.3-1.4c0-0.7-0.2-1.4-0.4-2c-0.2-0.6-0.4-1.2-0.6-1.8c0-0.2-0.1-0.3-0.1-0.5c0.1-1.2-0.4-2.2-1-3.2
		c0-0.6,0-1.3,0-2.1c-0.5-0.8-1-1.6-1.7-2.3c-0.6-0.7-1.4-1.2-2.1-1.8c-0.9-0.2-1.6-0.4-2.3-1c-0.3-0.2-0.7-0.4-1.2-0.4
		s-0.9-0.2-1.5-0.4c-0.3-0.4-0.7-0.8-1.1-1.3l-0.1,0.1c-0.3-0.5-0.5-1-0.8-1.6c0-2.2,0.3-2.9,2.6-5.1c2.1-1,4.1-2.3,6.4-2.5
		c0.9,0.4,1.6,0.7,2.2,1.3c0.2,0.1,0.4,0.2,0.6,0.3c0.6,0.3,1.2,0.5,1.8,0.8c0.6,0.3,1.1,0.7,1.7,1c1.7,0.7,3.1,1.7,4.3,3.1
		c0.4,0.2,0.9,0.4,1.4,0.7c0.5,0.5,1.1,1,1.4,1.7c0.1,0.3,0.5,0.7,0.8,0.8c1.6,0.5,2,1.8,2.4,3.2c0.8,0.8,1.6,1.5,2.2,2.1
		c0.4,0.9,0.7,1.4,1.1,2.2c0.2,0.2,0.6,0.5,1,0.9c0.6,1,0.6,2.3,1.5,3.2c0.2,0,0.4,0,0.7,0.1c0.8-0.8,1.3-1.8,1.8-2.9
		c0-2.1,0-4.3,0-6.5c0-0.5-0.1-1.1,0.2-1.6c0.2-0.3,0.1-0.6,0.1-1c0.1-0.7-0.2-1.4,0.3-2.1c0-0.6,0.2-1.2-0.2-1.8
		c-0.3-0.5-0.3-1-0.1-1.4c0.2-0.4,0.2-0.8,0.2-1.3s0-1,0.3-1.4c0.1-0.2,0.1-0.5,0.1-0.8c0-0.6,0-1.2,0-1.8c0.6-1.7,1.1-3.4,1.6-5.1
		c0.1-0.2,0.1-0.4,0.2-0.6c0.6-1.1,1-2.2,1.3-3.4c0.2-0.6,0.5-1.1,0.7-1.8c0-0.1,0-0.4,0-0.8c-0.2-0.2-0.5-0.5-0.6-0.6
		c-0.9-0.4-1.5-0.6-2.1-1c-0.4-0.2-0.6-0.6-0.9-0.9c-0.2-0.3-0.4-0.7-0.5-1c-0.8-0.7-1.4-1.6-2.4-2.1c-0.4-0.2-0.7-0.7-1.1-1
		c-1-0.9-2-1.7-3.2-2.2c-0.8-0.8-1.6-1.5-2.2-2.5c-0.3-0.5-0.8-0.8-1-1.1c-0.8-0.2-1.5-0.6-2.4-0.4c-0.7,0.5-1.5,1-2.4,1.3
		c-0.5,0.1-1,0.4-1.4,0.8c-0.2,0.2-0.4,0.5-0.5,0.6c-0.9,0.5-1.6,0.8-2.4,1.2c-0.3,0-0.7,0-1,0c-0.9,0.5-1.8,0.8-2.3,1.5
		c-0.6,0.2-1.2,0.4-1.8,0.6c-0.3,0.2-0.6,0.5-0.8,0.9c-0.4,0.8-1.1,1.1-1.9,1.3c-0.7,0.1-1.4,0.4-2.1,0.8c-0.7,0.5-1.4,1.1-2.4,1.2
		c-0.5,0.1-0.9,0.4-1.4,0.7c-0.8,0.9-1.8,1.5-2.9,2.1c-0.5,0.3-1.1,0.6-1.5,1c-0.6,0.6-1.2,0.9-1.9,1.2c-1.2,0.6-2.3,1.3-3.2,2.2
		c-2.1,1-3.7,2.4-5.3,4c-1.5,0.1-2.2,1.3-3.2,2.2c-0.3,0.2-0.8,0.4-1.4,0.7c-0.6,0.7-1.4,1.4-2.2,2.2c-0.6,0.6-1.1,1.2-1.5,1.9
		c-0.4,0.6-0.9,1.1-1.3,1.6c-0.7,0.7-1.3,1.3-2,2c-0.2,0.2-0.5,0.4-0.6,0.6c-0.3,0.8-1,1.2-1.7,1.7c-1.6,1-2.9,2.4-3.9,4
		c-0.3,0.5-0.6,0.9-1,1.2c-1,1-2,2-3,3c-0.8,0.8-1.7,1.5-2.3,2.5c-0.4,0.6-1,1-1.5,1.5c-0.7,0.7-1.5,1.4-2.2,2.2
		c-0.8,0.9-1.7,1.5-2.6,2.2c-0.4,0.3-0.8,0.5-1.3,0.6s-1.1,0.2-1.5,0.4c-0.7,0.4-1.4,0.5-2.1,0.9c-0.9,0-1.7,0-2.6,0
		c-0.3-0.2-0.7-0.3-1-0.5c-0.4-0.3-0.7-0.6-0.9-0.8c-0.1-0.4-0.1-0.6-0.2-0.9c-0.7-0.6-1.4-1.3-1.9-1.7c-1-2-1.5-3.8-2.3-5.5
		c0-0.6,0-1.3,0-1.7c0.2-1.5,1-2.4,1.6-3.5c0-0.4,0-0.9,0-1.3c0.2-0.5,0.4-1,0.6-1.4s0.6-0.9,1-1.3c0.2-0.3,0.5-0.6,0.6-1
		c0.3-0.9,0.8-1.6,1.4-2.3c0.1-0.2,0.3-0.3,0.4-0.5c0.6-0.9,1.2-1.8,1.8-2.6c0.3-0.4,0.6-0.7,1-0.9c0.6-0.3,0.9-0.7,1.3-1.1
		c0.6-1.3,1.3-2.5,1.9-3.9c0.9-0.9,1.9-1.9,2.9-2.9c0.2-0.2,0.5-0.5,0.7-0.7c0.7-0.3,1.1-0.8,1.5-1.5c0.4-0.8,1.2-1,1.9-1.5
		c0.3-0.2,0.7-0.3,1.1-0.5c0.2-0.4,0.5-0.9,0.8-1.5c0.6-0.8,1.6-1.2,2.4-1.9c0.2-0.1,0.4-0.2,0.5-0.4c0.5-0.4,1-0.8,1.5-1.1
		c1-0.6,2.2-1.2,3.2-1.8c0.6-0.3,1.2-0.5,1.8-0.8c0.6-0.3,1-0.8,1.6-1.1c0.3-0.2,0.7-0.3,1-0.5c0.6-0.4,1.3-0.6,1.8-1
		c0.3-0.2,0.7-0.4,1-0.5c0.8-0.1,1.3-0.6,1.9-1.2c0.7-0.7,1.4-1.5,2.3-2c0.3-0.2,0.6-0.4,1-0.5c0.3,0,0.7-0.2,0.9-0.4
		c0.5-0.5,1.2-0.8,1.8-1c1.5-0.7,2.9-1.6,4.4-2.4c1.3,0.1,2.4-0.6,3.7-1.2c0.4-0.4,0.8-0.9,1.2-1.3c0.4-0.5,1-0.7,1.6-0.8
		c0.5-0.1,1.1-0.2,1.5-0.4c0.9-0.5,1.8-0.7,2.7-1c0.5-0.2,1-0.3,1.4-0.7c0.6-0.4,1.3-0.8,2-0.9c0.7-0.7,1.4-1.4,2.1-2.1
		c0.1-0.3,0-0.6-0.2-0.9c-0.3-0.3-0.5-0.6-0.7-0.8c-1.6-0.3-2.7-1-3.7-2c-0.4-0.5-1-0.9-1.5-1.2c-0.5-0.3-0.9-1-1.3-1.4
		c-1.9-0.2-3.6-1-5.5-0.7c-1.1-0.5-2.2-0.9-3.3-1.3c-0.7-0.1-1.3,0-1.9-0.2c-0.6-0.2-1.2,0-1.8-0.2c-0.5-0.2-1-0.2-1.4-0.3
		c-0.4-0.1-0.8-0.4-1.1-0.7c-0.4-0.3-0.8-0.6-1-0.9c0-0.8,0-1.4,0-2.1c0.4-0.9,1.1-1.6,2-2.2c1-0.6,1.9-1.4,3.2-1.9
		c0.7,0,1.5-0.2,2.2,0c1.1,0.3,2.2,0.2,3.1,0.9c1,0,2,0,3,0c0.9,0,1.6,0.2,2.3,0.5c1,0.6,2.1,0.8,3.1,1.1c0.3,0.1,0.5,0.2,0.8,0.3
		c0.1,0,0.2,0,0.3,0c0.7,0,1.4-0.1,2.1,0.1c0.7,0.2,1.3,0.4,2,0.7c0.9,0.4,1.7,0.7,2.6,0.6c0.8,0.4,1.8,0.2,2.6,0.6
		c0.6,0.3,1.2,0.4,1.9,0.7c0.2-0.1,0.4-0.3,0.6-0.5c0-1-0.7-1.6-0.8-2.4c-0.2-0.8-0.5-1.5-0.8-2.2c-0.1-0.8,0-1.5-0.2-2.2
		s-0.2-1.5-0.5-2.2c-0.2-0.7-0.5-1.4-0.7-2.1c0-0.7,0-1.4,0-2.2c-0.3-0.3-0.7-0.6-1.2-1c0,0-0.3,0-0.5-0.1c-1-0.6-2-1.2-3-1.9
		c-0.6-0.4-1.1-0.7-1.8-0.7c-1.3-0.5-2.7-0.7-4.1-1.3c-0.3,0-0.8,0-1.2,0c-1.7-0.8-3.4-1.3-5.1-1.9c-0.5-0.2-0.9-0.4-1.3-0.5
		c-0.8-0.3-1.5-0.8-2.3-1c-0.8-0.3-1.5-0.8-2.4-0.9c-0.5-0.4-1-0.2-1.6-0.3c-1.7-1-3.6-1.6-5.5-2.2c-0.1,0-0.1,0-0.2,0
		c-0.7-0.1-1.2-0.6-2-0.7c-0.7-0.1-1.3-0.4-2-0.6c-0.8-0.3-1.5-0.6-2.2-1c-1.1-0.6-2.2-1-3.4-1.4c-0.2-0.1-0.4-0.2-0.6-0.2
		c-1,0-1.9-0.4-2.7-0.9c-0.5-0.3-1-0.5-1.6-0.8c-0.3,0-0.7,0-1.1,0c-0.6,0-1.2,0.1-1.7-0.3c-0.5-0.3-1.1,0.1-1.6-0.3
		c-0.8-0.1-1.5-0.4-2.3-0.7c-0.6-0.2-1.3,0-1.9-0.4c-1.6,0.1-3.1-0.7-4.6-1.1c-0.4-0.1-0.7-0.2-1.1-0.3c-1.3-0.3-2.7-0.4-4-0.8
		c-0.5-0.2-1-0.2-1.4-0.1c-1,0.1-1.8-0.2-2.7-0.4c-0.9-0.2-1.5-0.8-2-1.5c-0.2-0.3-0.3-0.6-0.4-0.9c0.4-0.8,0.8-1.5,1.2-2.4
		c0.3-0.3,0.8-0.8,1.2-1.2c0.8-0.2,1.5-0.5,2.3-0.6c2-0.7,2.8-1,3.6-1s1.5-0.3,2.2-0.4c0.8,0,1.6,0,2.4,0c0.8,0,1.6,0,2.4,0
		c0.3,0.1,0.6,0.3,0.8,0.4c0.3-0.1,0.5-0.2,0.8-0.4c1.5,0,3,0,4.5,0c0.5,0,1.1-0.1,1.6,0.3C22,71,22.3,71,22.5,71
		c0.7,0,1.4-0.1,2.1,0.3c0.2,0.1,0.5,0,0.8,0c1.1,0,2.2,0,3.2,0c0.6,0,1.2-0.1,1.7,0.3c0.1,0.1,0.3,0.1,0.5,0.1c1,0,2.1,0,3.1,0
		c0.2,0,0.4,0,0.5,0c0.7-0.5,1.5-0.3,2.2-0.3c0.5,0,1.1,0.1,1.6-0.3c0.2-0.1,0.4,0,0.7,0c0.6,0,1.2,0,1.8,0c0.7,0,1.3,0,2,0
		c0.5-0.5,1.1-0.2,1.7-0.5c0.5-0.2,1-0.1,1.6-0.2c1-0.3,1.9-0.8,2.7-1.6c0.2-0.2,0.5-0.3,0.7-0.4c1.4-0.7,2.7-1.6,3.9-2.5
		c0.4-0.3,0.9-0.6,1.6-1c0.1-0.1,0.3-0.4,0.6-0.7c0.5-0.5,0.9-0.9,1.5-1.2c0.8-0.4,1.4-1,2-1.6s1.1-1.1,1.7-1.7
		c0.4-0.7,0.7-1.4,1.1-2.2c-0.1-1.2,0.6-2.4,1-3.8c0-0.3,0-0.9,0-1.4s0.1-1.1-0.3-1.6c-0.1-0.3-0.1-0.6-0.1-1c0-1.2,0-2.5,0-3.7
		c-0.3-0.7-0.6-1.2-0.8-1.8s-0.3-1,0-1.5c0.1-0.2,0.1-0.4,0.1-0.6c-0.1-1.1,0.3-2.2-0.3-3.2c0-0.1,0-0.2,0-0.3
		c0.1-1-0.3-1.8-0.7-2.7c0-1,0-2.2,0-3.3c-0.5-0.6-1.1-1.1-1.3-2c0.5-1.1,1-2.4,1.2-4c0-0.1-0.1-0.4-0.3-0.7c-0.2-1.2,0.3-2.3,1-3.5
		c0-0.8,0.2-1.6-0.3-2.3c0-0.6,0-1.1,0-1.7c0.3-0.6,0.6-1.2,0.9-1.9c-0.4-0.9-0.4-1.9-0.9-2.8c-0.5-0.9-1.2-1.5-1.9-2.2
		c-0.1-1-0.8-1.9-0.8-2.9c-0.3-0.3-0.6-0.6-0.9-1c-0.5-1.5-0.9-3.1-1.7-4.4c0-0.7,0-1.3,0-1.9c0.4-0.4,0.7-0.8,1-1.1
		c0.9,0,1.7,0,2.5,0c0.5,0.2,1.1,0.5,1.6,0.8c0.6,0.9,1.1,1.8,1.9,2.6c0.6,0.6,0.8,1.5,1,2.3c0.4,1.8,0.9,2.7,1.8,4.4
		c0.7,1.3,1.5,2.5,2.1,3.8c0.3,0.6,0.4,1.4,0.8,1.9c0.4,0.6,0.7,1.2,1.1,1.9c0.9,0.4,1.8,0.9,2.7,1.4c0.6,0.6,1.2,1.2,1.8,1.8
		c0.2,0.4,0.4,0.8,0.7,1.3c0.7,0.7,1.5,1.5,2.4,2.2c0.8,0.6,1.5,1.2,2,2c0.3,0.4,0.6,0.9,1,1.1c1.1,0.5,1.5,1.6,2.1,2.5
		c0.1,0.2,0.2,0.4,0.3,0.7c0.6,0.6,1.2,1.3,1.9,1.8c1.8,1.2,3,2.9,4.6,4.2c0.2,0.4,0.4,0.7,0.5,1c0.2,0.5,0.6,0.9,1.1,1.1
		c0.4,0.1,0.7,0.3,1,0.5c0.9,0.5,1.9,0.9,2.2,2c0.9,0.8,1.6,1.7,2.6,2.4c0.8,0.6,1.5,1.4,2.2,2.2c0.3,0.3,0.4,0.6,0.7,0.9
		c0.5,0.4,1.1,0.8,1.4,1.2c0.4,0.6,0.8,1,1.2,1.5c0.4,0.4,0.7,0.8,1,1.3c0.5,0.8,1,1.5,1.7,2.1c0.5,0.4,0.9,0.9,1.4,1.4
		c1.2,0.4,2.1,1.1,2.3,2.3c1.2,0.7,2.1,1.5,2.8,2.7c0.3,0.2,0.6,0.3,1,0.5c1.3,0,2.6,0,3.8,0c0.6,0.2,1.1,0.4,1.8,0.7
		c1,0.2,2.1-0.2,3.1-0.5c0.7-0.2,1.4-0.1,2.1-0.1c0.6,0.5,1.4,0.3,2.1,0.3c0.5,0,1,0,1.4,0c0.4-0.2,0.7-0.4,1-0.6
		c0.3-0.6,0.6-1.1,0.9-1.7c0.4-0.8,0.8-1.7,1.4-2.3c0.5-0.5,0.6-1.1,1-1.7c0.3-0.4,0.6-0.8,0.9-1.1c0.4-0.4,0.7-0.9,1-1.2
		c0-0.5,0-0.9,0.1-1.4c0.5-0.5,1-0.9,1.6-1.4c0.1-0.6-0.4-1-0.4-1.7c0-0.6,0.4-1,0.4-1.6c-0.1-0.8,0.5-1.4,0.4-2.2
		c0.4-0.4,0.2-1,0.3-1.5c0.3-0.6,0.6-1.2,0.9-1.9c0.1-0.5-0.1-1,0.3-1.5c0.1-0.2,0.1-0.4,0.1-0.6c0-0.5,0-1,0.3-1.4
		c0.1-0.2,0.1-0.6,0-0.8c-0.4-0.6-0.3-1.2-0.3-1.9c0.2-0.3,0.3-0.7,0.5-1c0.3-0.2,0.7-0.4,1.1-0.6c0.7,0,1.3,0,1.9,0
		c0.9,0.4,1.9,0.6,2.6,1.3c1.1,0,2.1,0,3.1,0c0.6,0,1.1-0.1,1.7,0.2c0.4,0.2,1,0.2,1.4-0.1c0.3-0.2,0.7-0.3,0.9-0.1
		c0.7,0.5,1.5,0,2.2,0.6c0.8,0.1,1.4,0.6,2.1,0.9c0.6,0.6,1.2,1.1,1.6,1.9c0.3,0.5,0.8,0.8,1.1,1.2c0.6,0.6,1.1,1.1,1.8,1.8
		c0.4,0.6,0.5,1.4,1.3,1.8c1.2,0.3,2.3,0.8,3.2,1.7c0.2,0.2,0.5,0.3,0.7,0.4c0.7,0.6,1.4,1,2,1.6s1.2,1.1,1.9,1.5
		c0.5,0.3,1.1,0.6,1.6,0.7c1.2,0.2,2.1,1,2.7,1.9c0.3,0.5,0.7,0.8,1,1.3c0.4,0.2,0.8,0.4,1.3,0.6c0.6,0.3,1.1,0.6,1.4,1.3
		c0.3,0.6,0.8,1,1.3,1.4c1.1,0.8,2.3,1.5,3.5,2.3c0.4,0.6,0.8,1.2,1.2,1.9c0.3,0.2,0.6,0.3,1,0.5c0.5,0,1,0,1.5,0
		c0.2-0.1,0.3-0.3,0.5-0.5c0-0.5,0-1,0-1.5c-0.3-0.7-0.8-1.4-0.9-2.2c-0.1-0.8-0.6-1.4-0.8-2.1c-0.2-0.8-0.6-1.5-0.9-2.2
		c0-1,0-2-0.4-2.8c0.3-0.6,0.5-1,0.8-1.5c0-0.1,0.1-0.4,0-0.6c-0.2-0.6-0.4-1.1-0.6-1.8c0-0.3,0-0.8,0-1.3c0-0.2,0-0.4,0-0.5
		c-0.5-0.9-0.2-1.9-0.3-2.9c0-0.5-0.2-1-0.3-1.4c0.2-1,1-1.6,1.9-2.1c1-0.5,2-1,3.2-1c0.1,0,0.2,0,0.3-0.1c0.6-0.2,1.1-0.5,1.7-0.6
		c0.9-0.1,1.7,0,2.6,0c0.4,0.1,0.8,0.3,1.2,0.4c0.9,0.9,1.7,1.8,2.9,2.9c0.3,0.5,0.6,1.5,0.9,2.4c-0.2,0.5-0.4,0.9-0.7,1.4
		c0,0.3,0,0.6,0,0.9c0,0.1,0.1,0.2,0.1,0.3c0.5,1,1.1,2,1.3,3.1c0.2,1,0.8,2,0.8,3.1c0,0.2,0.1,0.3,0.1,0.5c0.5,1.1,1,2.2,1.5,3.2
		c0.1,0.1,0.2,0.3,0.2,0.4c0.2,1,0.9,1.8,1.4,2.7c0.4,0.6,0.7,1.1,0.7,1.8c0.1,0.6,0.4,1.1,0.6,1.8c0,0.5,0,1.1,0,1.7
		c0.2,0.6,0.4,1.1,0.7,1.8c0,0.4,0,1,0,1.4c0.3,1,0.8,1.7,0.7,2.7c0.5,0.9,0.2,1.8,0.3,2.7c0.2,0.4,0.6,0.7,1,1
		c1.1,0.8,2.3,1.5,3.6,2.2c0.8,0.4,1.5,0.9,2.2,1.4c0.2,0,0.6-0.1,0.7,0.1c0.6,0.4,1.2,0.2,1.8,0.6c0.9,0.5,1.7,0.8,2.7,1
		c0.3,0.1,0.6,0.2,0.7,0.3c0.5,0.6,1.2,0.6,1.9,1c0.4,0,0.8,0,1.2,0c0.4,0.1,0.8,0.2,1.2,0.3c0.4,0.1,0.8,0.2,1.3,0.3
		c0.1-0.1,0.3-0.3,0.4-0.4c0-0.7,0-1.3,0-2c-0.4-0.6-0.9-1.3-1.4-2.1c-0.4-0.8-0.8-1.5-1.2-2.3c0-0.6,0-1.2,0-2
		c-0.6-1.4-1.2-2.8-2-4.4c0-0.4-0.2-0.9,0.2-1.4c0.2-1.2,0.1-2.4-0.4-3.4c-0.8-1.4-1.2-3-2-4.4c-0.5-0.9-0.9-1.9-0.8-2.9
		c-0.5-0.6-1-1.1-1.6-1.6c-0.8-0.8-1.4-1.6-1.9-2.6c-0.4-0.8-0.8-1.4-1.3-1.9c-0.3-0.9-0.4-1.6-0.9-2.3c-0.4-0.5-0.6-1.1-0.8-1.8
		c-0.1-0.6-0.4-1.1-0.7-1.8c0-0.3,0-0.6,0-1c-0.3-0.5-0.6-1-1-1.6c0-0.8,0-1.6,0-2.5c0-0.5,0.1-1.1-0.3-1.6
		c-0.1-0.2-0.1-0.5-0.1-0.8c0-0.4,0-0.8-0.2-1.1c-0.1-0.2-0.1-0.5-0.1-0.8c0-0.7,0-1.4,0-2c-0.5-0.8-0.9-1.5-1.3-2.2
		c-0.1-0.7,0.1-1.3-0.4-1.8c0.1-0.4-0.3-0.7-0.3-1.1c0-0.6,0-1.1,0-1.6c0.2-0.4,0.4-0.8,0.6-1.2c0-1.2,0-2.4,0-3.7
		c0.5-0.7,1.1-1.2,1.8-1.8c0.3,0,0.6,0,0.9-0.1c0.3-0.1,0.5-0.2,0.7-0.3c1.2,0.3,2.4,0.6,3.4,1.3c0.3,0,0.7,0.1,0.9,0
		c0.4-0.3,0.8-0.3,1.2-0.3s0.8,0,1.1,0c0.5,0,1,0.1,1.6-0.2c0.4-0.2,1-0.1,1.4-0.3c0.6-0.2,1.1-0.1,1.7-0.2c0.7,0.3,1.3,0.5,2.1,0.8
		c0.3,0.8,1,1.4,1,2.4c0,0.2,0.2,0.4,0.3,0.6c0.3,0.7,0.7,1.4,1,2.1c0,0.7,0,1.4,0,2.2c0.4,1.2,1,2.4,1.2,3.6
		c0.2,0.9,0.6,1.5,1.2,2.1c0.4,0.3,0.7,0.7,1,0.9c0.8,1.7,1.8,3.1,2.8,4.5c0.6,0.8,1.2,1.4,1.8,2.1c0.2,0.2,0.4,0.5,0.6,0.8
		c0.6,0.7,1.1,1.4,1.7,2.1c0.2,0.4,0.4,0.9,0.6,1.2c0.9,0.9,1.7,1.7,2.6,2.6c0.4,0.2,0.8,0.4,1.2,0.6c1.1,0.9,1.7,2.2,2.3,3.4
		c0,0.3,0,0.6,0.1,1c0.5,0.4,1,0.9,1.3,1.1c0.4,0.8,0.6,1.2,0.9,1.7c0.8,0.4,1.4,1,1.9,1.8c0.4,0.7,1.1,1.2,1.8,1.7
		c1,0.6,1.8,1.3,2.6,2.1c0.2,0.1,0.5,0.3,0.7,0.4c1,0.6,2.2,1,3.3,1.1c0.7,0.1,1.3,0.5,1.9,0.9c0.6,0.4,1.1,0.6,1.8,0.7
		c0.6,0.1,1,0.3,1.5,0.4c0.4,0.1,0.8,0.2,1.2,0.3c1,0.1,1.9,0.5,2.7,0.9c1.4,0.7,2.8,1.2,4.4,1.4c0.7,0.5,1.6,0.2,2.3,0.6
		c0.3,0.2,0.8,0,1.1,0.1c0.6,0,1.2-0.1,1.8,0.1c0.6,0.2,1.2,0,1.7,0.5c1.9,0.4,3.6,1.1,5.5,1.7c0.3,0.1,0.5,0.2,0.9,0.3
		c0.6,0,1.2,0,1.9,0c0.8-0.1,1.5,0.2,2.2,0.5s1.3,0.6,2,0.6c0.2,0,0.4,0.2,0.6,0.2c1.3-0.1,2.5,0.6,3.7,0.7c0.7,0.4,1.5,0.3,2.1,0.3
		c1.1,0.2,1.9,0.8,2.8,1.3c1.3-0.1,2.6,0.4,3.8,0.8c0.3,0.1,0.6,0.3,0.9,0.2c0.9-0.2,1.7,0.2,2.5,0.4c0.8,0.1,1.5,0.6,2.3,0.9
		c0.8,0,1.6,0,2.5,0c0.6,0,1.2,0,1.8,0.1c0.5,0.5,1.2,0.1,1.7,0.5c0.2,0.2,0.6,0,1,0c0.3-0.4,0.1-0.9,0.2-1.3
		c-0.6-0.9-1.2-1.8-1.4-2.8c-0.1-0.3-0.2-0.5-0.2-0.8c0.1-0.8-0.3-1.5-0.4-2.2c0-0.5-0.3-0.9-0.7-1.2c-0.2-0.2-0.4-0.4-0.6-0.6
		c0.2-0.8-0.4-1.5-0.3-2.3c-0.4-0.7-0.3-1.5-0.3-2.2c-0.2-0.5-0.3-1-0.5-1.4c-0.2-0.5-0.2-0.9,0-1.4c0.3-0.6,0.3-1.3,0-1.9
		c-0.4-0.8-0.1-1.4,0.3-2c0.3-0.4,0.7-0.7,1-1c0.5,0,0.9,0,1.5,0c0.7,0.3,1.5,0.6,2.4,1c0.9,0,1.8,0,2.7,0c0.5,0.2,1,0.3,1.4,0.5
		s0.7,0.5,1.1,0.8c0.5,1,1,2,1.2,3.2c0.1,0.7,0.6,1.3,0.9,2c0,0.6,0.1,1.3-0.3,1.9c-0.1,0.1,0,0.2,0,0.3c0.1,0.7,0.3,1.3,0.7,1.8
		c0.5,0.2,0.9,0.1,1.3,0.1c1.2-0.4,1.9-1.5,2.7-2.2c0.6-1,1-1.7,1.5-2.6c1.3-0.3,2-1.3,2.6-2.4c0-1,0-2.1,0-3.1
		c-0.3-0.4-0.7-0.7-1-1.1c-0.3-0.4-0.4-0.9-0.7-1.4c0-0.5,0-1,0-1.5c-0.3-0.9-0.7-1.6-1-2.4c0-0.6,0-1.1,0-1.6
		c-0.3-0.6-0.6-1.2-1-1.9c0-0.3,0-0.6,0-1c-0.3-0.4-0.6-1-1-1.6c0,0,0-0.3,0-0.6c-0.4-1-0.9-2-1.3-2.9c0-0.7,0-1.3,0-1.9
		c-0.1-0.3-0.2-0.7-0.3-1c-0.5-1.3-1-2.6-1.8-3.7c-0.4-0.6-0.7-1.2-0.9-1.9c-0.2-0.7-0.5-1.4-0.8-2.3c-0.6-0.7-1.8-1.1-2.3-2.2
		c-0.5-1-1.5-1.7-1.8-2.8c-0.7-1-1.8-1.5-2.2-2.9c0-0.1,0-0.4,0-0.9c0.1-0.3,0.3-0.7,0.5-1c0.5-0.3,1-0.6,1.6-0.8s1.4,0.1,2-0.4
		c0.1-0.1,0.4,0,0.7,0c0.9,0,1.7,0,2.6,0c1.3,0.4,2.4,1,3.5,1.6c0.7,0.3,1.3,0.7,2.1,0.9c1,0.2,1.9,0.8,2.7,1.4
		c0.4,0.2,0.7,0.5,1.1,0.7c1,0.5,2,1,2.9,1.6c0.5,0.6,0.6,1.2,0.6,1.7c0.5,1.2,1.3,1.9,1.8,2.4c0.8,1.2,1.4,2.2,2,3.2
		c0,0.7,0.2,1.3,0.8,1.8c0.7,0.6,1,1.4,1.2,2.2c0.3,0.8,0.6,1.6,0.7,2.4c0,0.4,0.4,0.8,0.6,1.2c0,1.1,0.7,3.4,1.1,4.1
		c0.3,0.6,0.7,1.2,0.7,2c0.5,0.6,0.2,1.2,0.3,2c0.5,0.5,1,1,1.5,1.6c0.4,1,0.4,2.2,1.1,3.1c0,0.7,0,1.3,0,2c0,1.4,0,1.4,0.7,3
		c0,0.6,0,1.2,0,1.9c0,0.4,0,0.8,0.2,1.1c0.2,0.4,0.2,0.8,0,1.2c-0.1,0.3-0.1,0.6-0.2,0.9c0.2,0.3,0.3,0.6,0.5,0.9
		c0.2,0.1,0.5,0.3,0.8,0.5c0.9,0,2-0.1,3,0s2-0.5,2.8-0.4c1.5-0.6,2.7-1.1,4-1.6c0.3-0.1,0.6-0.2,0.9-0.4c0.9-0.6,1.8-1,2.8-0.9
		c0.5,0,0.8-0.3,1.2-0.3c0.5,0,0.9-0.3,1.4-0.4c0.5-0.1,1,0.1,1.4-0.3c0.1-0.1,0.2,0,0.3,0c0.8,0.1,1.6-0.4,2.4-0.4
		c0.6-0.4,1.2-0.3,1.9-0.3c0.4,0,0.9,0,1.3,0c0.6-0.3,1.2-0.7,1.9-0.8c0.3,0,0.5-0.2,0.8-0.2c0.7,0,1.2-0.2,1.8-0.6
		c0.2-0.5,0.4-1,0.6-1.5c0-0.1,0.2-0.2,0.2-0.3c0.1-1.2,0.8-2.1,1.2-3.1c0.2-0.5,0.4-0.9,0.5-1.3c0.3-0.9,0.6-1.7,1.3-2.4
		c0.1-0.1,0.2-0.2,0.2-0.2c0.6-1.3,1.3-2.5,2.1-3.8c0.1-1,0.8-1.7,1.4-2.5c0.4-0.5,0.7-1,1-1.5c0.9-1.6,1.5-3.3,2.3-5
		c0.3-0.5,0.6-1,0.9-1.6c0.7-0.4,1.5-0.9,1.8-1.7c0.1-0.1,0.2-0.3,0.3-0.4c1-0.4,1.4-1.2,1.7-2c1.9-1.9,3.7-3.8,5.7-5.6
		c1-1,2.2-1.9,3.5-2.5c1.9-1,3.8-1.9,5.9-2.4c0.4-0.1,0.7-0.2,1-0.4c1.1-0.7,2.3-0.8,3.4-1.1c0.5,0.1,0.8-0.3,1.2-0.3
		c0.6-0.1,1.2,0,1.8,0c1.2-0.1,2.4,0.2,3.5-0.3c0.2-0.1,0.5,0,0.8,0c1,0,2.1,0,3.1,0c0.4,0,0.9,0,1.3-0.2c0.6-0.2,1.2-0.1,1.7-0.2
		c1.4,0.5,2.8,0.9,3.7,2.2c0,0.2,0,0.5,0,0.8c-0.5,1.1-1.4,1.9-2.2,2.8c-0.3,0.3-0.7,0.5-1,0.8c-1.3,1-2.7,1.8-4.1,2.8
		c-0.5,0.4-1,0.6-1.5,0.9c-0.8,0.4-1.5,0.9-2.2,1.4c-0.5,0.4-1,0.7-1.4,1.1s-0.8,0.8-1.2,1.1c-0.4,0.4-0.9,0.7-1.3,1
		s-0.7,0.7-1.1,0.9c-0.6,0.4-1,1-1.6,1.4c-0.5,0.4-0.8,1-1.5,1.2c-0.1,0-0.3,0.2-0.4,0.3c-1.2,1.2-2.4,2.4-3.5,3.6
		c-0.3,0.3-0.5,0.7-0.8,1c-0.2,0.1-0.5,0.3-0.7,0.4c-0.3,0.3-0.5,0.7-0.8,1.7c-0.6,0.6-1,1.3-2,1.6c-0.3,0.7-0.6,1.4-0.8,2.1
		c-0.2,0.7-0.5,1.3-1,1.8c-0.4,0.5-0.8,1-1.2,1.5c-0.2,0.3-0.2,0.7-0.4,1.1c0.2,0.1,0.4,0.3,0.7,0.5c1-0.5,2-1,3.1-1.5
		c1.2-1.3,2.9-2.2,4.5-3.1c0.3-0.2,0.6-0.3,1.1-0.5c1.2-1,2.6-2,4.3-2.5c0.7-0.2,1.3-0.7,2.1-1c1.5-1.4,1.5-1.4,3.6-1.9
		c0.9-0.9,1.9-1.6,3-2.2c1.5-0.9,2.8-2,4.3-2.8c0.4-0.2,0.6-0.6,0.9-0.9c1.7-0.6,3-1.9,4.6-2.6c1.4-1.1,3-2,4.3-3.2
		c0.6-0.3,1.2-0.6,1.9-1c0.9-1,2.1-1.7,3.2-2.4c1-0.7,2.1-1.3,3.2-1.7c0.6-0.2,1.2-0.7,1.7-1.2s0.9-0.9,1.5-1.2
		c0.6-0.3,1.1-0.7,1.7-1c0.7-0.7,1.4-1.4,2.1-2.1c0.8-0.9,1.7-1.4,2.7-2c0.8-0.4,1.5-0.8,2.3-1.1c0.8-0.6,1.3-1.5,2.7-1.9
		c0.2,0,0.7,0,1.3,0c1.3,0.4,2.4,1,3.2,2.1c0.3,0.9-0.1,1.5-0.3,2.2c-0.1,0.6-0.6,1-1,1.5c-1,1-2.1,1.7-3.3,2.3
		c-0.2,0.3-0.4,0.7-0.5,1c-0.1,0.4-0.4,0.7-0.7,0.9c-0.9,0.4-1.4,1.2-2.1,1.8c-0.2,0.4-0.4,0.9-0.6,1.3c-0.6,0.7-1.5,1.3-1.8,2.4
		c0,0.2,0,0.5,0,0.8c-0.1,0.2-0.1,0.3-0.1,0.4c-0.2,0.3-0.3,0.7-0.6,1c-0.8,0.7-1.1,1.5-1.4,2.5c-0.2,0.6-0.4,1.2-0.8,1.8
		c-0.5,0.9-0.8,1.8-1,2.7c-0.4,1.1-0.8,2.2-1.3,3.3c0,0.6,0,1.2,0,1.9c-0.2,0.4-0.4,0.8-0.6,1.1c-0.2,0.7-0.5,1.4-0.4,2.2
		c0,2.5,0,5,0,7.4c-0.1,0.3-0.2,0.4-0.3,0.6c0.4,1.1,0.3,2.2,1,3.2c0,0.5,0,1,0,1.4c0,0.3,0,0.6,0.1,0.8c0.3,0.9,0.3,1.7,0,2.5
		c-0.1,0.4-0.2,0.9-0.1,1.3c0.3,0.5,0.2,1,0.3,1.6c0.1,0.5,0.2,1,0.4,1.4c0.8,1.7,1.5,3.4,2,5.2c0.1,0.3,0.3,0.6,0.5,0.9
		c0.6,1,1.1,2,1.9,2.8s1.2,1.8,1.8,2.7c0.4,0.6,0.9,1.1,1.4,1.5c0.4,0.3,0.8,0.6,1.1,1c0.4,0.6,0.8,1.2,1.2,1.7
		c0.3,0.4,0.7,0.9,1.1,1.1c0.6,0.3,0.9,0.7,1.2,1.2c0.6,1,1.3,1.9,2.2,2.6c0.6,0.5,1.3,0.9,2,1.4c1.3,1,2.7,1.9,4.1,2.8
		c1.3,0.9,2.8,1.5,4.3,2.1c0.2,0.1,0.5,0,0.6,0.2c0.4,0.5,1,0.6,1.6,0.8c0.6,0.2,1.1,0.5,1.7,0.5c0.4,0,0.7,0.2,1.1,0.3
		c0.8,0.3,1.5,0.6,2.1,0.9c0.9,0.2,1.7-0.2,2.3,0.4c0.7,0,1.4,0.2,2,0.4c0.5,0.2,0.9,0.3,1.4,0.3c0.7,0.1,1.3,0.4,2,0.5
		c0.9,0.2,1.7,0.5,2.7,0.5c0.8,0,1.5,0.3,2.2,0.5c0.5,0.2,1.1,0,1.6,0.4c0.2,0.2,0.6,0.1,1,0.1c1.7,0,3.5,0,5.2,0
		c0.9,0.4,1.7,0.9,2.1,1.8c0.2,0.5,0.3,0.9,0.1,1.4c-0.1,0.3-0.2,0.6-0.4,1c-0.2,0.2-0.6,0.5-1,0.9c-0.3,0.1-0.8,0.4-1.4,0.7
		c-0.5,0.2-1.1-0.1-1.6,0.3c-0.2,0.1-0.7,0.1-0.9-0.1c-0.4-0.2-0.9-0.2-1.3-0.2c-1,0-2,0-2.9,0c-0.7,0-1.4,0.1-2.1-0.2
		c-0.6,0.4-1.3,0.1-2,0.3c-1.1,0.4-2.3,0.8-3.5,1.2c-0.6,0.2-1.2-0.1-1.7,0.3c-0.5,0.3-1.1,0-1.5,0.5c-1.4,0.3-2.8,0.7-4.1,1.2
		c-0.1,0.1-0.3,0.1-0.5,0.1c-0.9,0-1.6,0.3-2.3,0.7c-0.6,0.2-1.1,0.4-1.8,0.7c-0.4,0-0.9,0-1.2,0c-1.1,0.4-2.1,0.9-3.1,1.2
		c-1.2,0.3-2.3,0.7-3.5,1.1c-1.3,0.5-2.5,1.1-3.4,2c-1.4,1.4-2.8,2.8-4.2,4.3c-0.4,0.7-0.8,1.6-1.3,2.7c-0.5,0.4-1,1-1.5,1.4
		c-0.8,1.6-1.7,3-1.5,4.8c-0.5,0.5-1,1.1-1.5,1.6c-0.2,0.6-0.4,1.2-0.6,1.9c-0.3,0.2-0.7,0.4-1.1,0.6c-0.6,0-1.2,0-1.7,0
		c-0.4-0.2-0.7-0.4-1-0.7c-0.3-0.3-0.7-0.6-0.9-0.9c-0.4-0.6-0.9-1-1.5-1.4c-1.1-0.8-2.4-1.4-3.4-2.8c-0.2-0.5-0.5-1.1-0.8-1.8
		c-0.5-0.8-1.3-1.4-1.8-2.2c-0.7-1.2-1.4-2.5-1.9-3.9c-0.2-0.6-0.3-1.2,0-1.7c0.3-0.6,0-1.2,0.5-1.7c0-0.6,0-1.2,0-1.7
		c0.5-0.8,0.7-1.5,1.2-2.1c0.2-0.2,0.1-0.5,0.2-0.8c0.4-0.8,0.9-1.6,1.5-2.3c0.6-0.8,1.1-1.4,1.9-1.9c0.4-0.2,0.7-0.6,1-0.9
		c0.2-1,1.1-1.7,1.7-2.6c0.3-0.6,0.9-1,1.1-1.5c0.5-0.8,1-1.4,1.8-1.8c0.5-0.2,0.9-0.6,1.3-1c0.1-1.1-0.8-1.6-1.2-2.4
		c-0.4-0.9-1.2-1.2-2-1.5c-1.1-1.2-2.3-2.3-3.4-3.4c-0.5-0.5-1.1-1-1.7-1.5c-0.7-0.5-1.3-1.1-1.8-1.9c-0.4-0.6-0.9-1.1-1.5-1.5
		c-1.2-0.9-2.6-2.3-3.4-3.4c-0.5-0.8-1.1-1.4-1.7-2.1c-0.9-1-1.9-2.1-2.6-3.2c-0.3-0.4-0.7-0.7-1.1-1.1c-0.1-0.7-0.4-1.4-1-2
		c-0.2-0.2-0.3-0.5-0.4-0.7c-0.1-0.1-0.2-0.3-0.3-0.4c-0.3-0.7-1.1-1.1-1.2-1.9s-0.7-1.3-1-2c-0.4-0.9-0.9-1.8-1.1-2.8
		c0-0.3-0.2-0.5-0.3-0.8c-0.5-1.1-1.1-2.2-1.7-3.4c0.1-0.6-0.1-1.2-0.3-1.8c-0.4-1-0.6-2.2-1-3.2c-0.2-0.5-0.4-1-0.7-1.4
		c-1-0.4-1.8,0-2.5,0.3c-1.8,0.8-3.5,1.6-5.1,2.7c-0.4,0.3-0.9,0.6-1.4,0.7c-0.4,0.1-0.7,0.2-1,0.5c-1,0.7-2,1.2-3.1,1.6
		c-0.5,0.1-0.9,0.4-1.3,0.6c-1.5,0.8-3.1,1.5-4.6,2.3c-1,0.5-1.9,1-2.9,1.2c-0.8,0.2-1.4,0.7-2.2,0.8c-0.4,0.1-0.8,0.4-1.1,0.7
		c-0.4,0.3-0.7,0.6-0.9,0.8c-0.2,0.6-0.2,1,0,1.4c0.1,0.3,0.2,0.6,0.2,1c0,1.5,0,3,0,4.5c-0.1,0.3-0.2,0.5-0.3,0.7
		c0,0.2,0,0.3,0,0.4c0.4,0.4,0.3,0.9,0.3,1.4c0,0.7-0.2,1.4,0.3,2.1c-0.1,1,0.3,2-0.3,2.9c0,0.8-0.4,1.4-0.7,2.1c0,0.3,0,0.5,0,0.7
		c0.9,1.1,1.4,2.4,1.3,3.8c0.3,1,1,1.6,1.7,2.2c0.4,0.2,0.8,0.4,1.1,0.6c1.2,1,2.3,2.2,3,3.7c0.4,0.8,0.8,1.4,1.4,1.9
		c0.7,0.2,1.4,0.5,2.2,0.5c0.3,0,0.7,0.2,1,0.5c0.6,0.6,1.2,1,1.6,1.8c0.2,0.3,0.4,0.6,0.6,0.7c1,0.5,1.6,1.4,2.4,2.2
		c0.4,0.4,0.8,0.8,1.1,1.1c0.4,0.4,0.9,0.8,1.1,1.4c0.3,0.5,0.7,0.9,1.1,1.2c1.1,0.7,1.9,1.7,2.8,2.6c0.3,0.5,0.5,1,0.8,1.5
		c0,0.3,0.1,0.6,0.1,1c0.5,0.4,1,0.9,1.5,1.3c0.1,0.1,0.3,0.1,0.4,0.2c1,1.2,2.4,2,3.5,3.1c0.4,0.4,0.9,0.8,1.1,1.4
		c0,0.1,0.2,0.3,0.3,0.4c1.5,0.9,2.5,2.4,3.8,3.5c0.8,1.3,2,2.2,3,3.3c0.6,0.6,1.1,1.1,1.8,1.6c0.6,0.4,1,1,1.5,1.5
		c0.8,0.9,1.7,1.5,2.5,2.2c0.9,0.8,1.7,1.4,2.7,2.1c0.3,0.2,0.6,0.5,0.9,0.8c1.7,1.7,3.4,3.4,5.1,5.1c1.3,0.6,2.3,1.4,3.3,2.3
		c0.9,0.8,1.8,1.6,2.8,2.2c1.4,0.9,2.8,1.9,3.9,3.1c0.7,0.8,1.5,1.3,2.4,1.8c1,0.6,1.9,1.2,2.9,1.6c1,0.4,2,0.9,2.9,1.3
		c1,0.4,1.8,1,2.8,1.2c1.2,0.7,2.5,1.2,3.7,2c0.7,0.5,1.5,0.9,2.2,1.3c0.5,0.3,1,0.6,1.6,0.6c0.2,0,0.4,0.1,0.6,0.2
		c1.5,0.8,3,1.3,4.6,1.8c0.8,0.2,1.6,0.6,2.3,1c0.5,0.3,1.1,0.5,1.8,0.8c0.1,0.2,0.3,0.6,0.6,1c0,0.5,0,1,0,1.5
		c-0.3,0.4-0.7,0.7-1.1,1.1c-0.8,0.1-1.5,0-2.2,0.3c-0.3,0.2-0.8,0-1.1-0.1c-1.4-0.3-2.4-0.3-3.8,0.1c-1.3,0.4-2.5,0.8-3.7,1.4
		c-0.1,0.1-0.3,0.2-0.4,0.2c-0.9-0.1-1.5,0.5-2.2,0.8c-0.4,0.2-0.8,0.5-1.2,0.5c-0.8,0.1-1.4,0.6-2.2,0.3c-1.1,1.1-2.2,2.1-3.2,3.2
		c-0.6,0.7-1,1.5-1.7,2.6c-0.4,0.4-1,1-1.7,1.6c-0.8,1.7-2,2.9-2.6,4.5C453.4,175.6,451.5,177,450.8,179.6z"/>
	<path vector-effect="non-scaling-stroke" class="st0" d="M336.4,128c0-0.4,0.1-0.7,0.1-0.9c0.5-1,1.6-1.2,2.2-2.1
		c0-0.2,0-0.5,0.1-1c0.4-0.3,0.8-0.6,1.2-1c0-0.4,0.1-0.9,0.1-1.3c0.7-1.1,2-1.4,2.9-2.8c0.1-0.2,0.4-0.6,0.6-1.1
		c0.3-0.7,0.8-1,1.4-1.3c0.4-0.2,0.8-0.4,1.2-0.6c0.1-0.2,0.1-0.5,0.2-0.8c0.4-0.3,0.8-0.6,1.2-0.9c0.4-0.3,1,0,1.2-0.7
		c0.1-0.3-0.1-0.5-0.4-0.6c-0.3-0.2-0.7-0.3-0.8-0.6c-0.5-1.1-1.5-1.6-2.4-2c-0.5-0.2-1-0.3-1.6-0.5c-0.2,0.2-0.4,0.3-0.6,0.5
		c0.1,0.2,0.1,0.3,0.2,0.4c-0.1,0.1-0.3,0.2-0.4,0.1c-0.8-0.2-1.6-0.4-2.2-0.9c-0.7-0.5-1.4-1-2.2-1.2c-0.5-0.2-1-0.5-1.2-1
		c0.3-0.2,0.6-0.5,0.9-0.7c-0.3-1.1-1.6-1-2.2-1.8c0-0.1-0.1-0.2-0.1-0.3c0-0.1,0-0.2,0-0.4c0.4-0.5,0.8-0.9,1.3-1.2
		c0.4-0.3,0.7-0.8,1-1.2c0.5-0.1,1.1-0.1,1.6-0.4c0.4-0.3,0.9-0.4,1.3-0.7c0.2,0,0.3,0,0.5,0c1.7,0.6,3.4,0.2,5.1,0.3
		c1.2-0.5,2.4-0.3,3.7-0.3c0.3,0,0.5-0.1,0.8-0.1c0.1,0,0.2-0.1,0.3-0.1c0.8,0,1.6,0.1,2.3-0.1c0.7-0.2,1.4-0.3,2.1-0.2
		c0.4,0.2,0.8,0.4,1.2,0.6c0.2,0,0.4,0.1,0.6,0c1-0.1,2.1,0.1,3,0.4c0.7,0.2,1.3,0.3,1.9,0.2c1.1-0.1,2.2,0.2,3.3,0.5
		c0.2,0,0.3,0.2,0.5,0.1c1.2-0.1,2.3,0.4,3.5,0.4c0.5,0,1,0.2,1.4,0.3c0.5,0.1,1,0,1.4,0.3c1.3,0,2.5,0.5,3.7,0.9
		c0.3,0.1,0.5,0.1,0.8,0.1c0.7,0,1.4,0,2,0c1.1,0.5,2,0.9,3,1.3c0.4-0.2,0.9-0.4,1.4-0.7c0.2,0,0.5,0,0.7,0c0.9,0.5,1.1,1.3,1.4,2.2
		c0.2,0.3,0.5,0.5,0.8,0.9c0.2,0.5,0.3,1.1,0.6,1.8c0.5,1.1,1.9,1,2.9,1.6c-0.1,0.4-0.2,0.7-0.3,1.2c0.2,0.5,0.5,1.2,0.8,1.9
		c0.8,1,1.7,2,2.7,3.1c0,1,0.5,1.9,1.4,2.6c0,0.5,0,1,0,1.5c-0.3,0.5-0.7,0.8-1.2,1.1c-0.7,0.3-1.4,0.6-2,1.1
		c-0.4,0.3-0.9,0.6-1.3,0.7c-1.1,0.2-1.9,1-3,1.2c-0.3,0.1-0.6,0.3-0.9,0.5c-1.1,0.8-2.2,1.5-3.5,1.9c-0.2,0.1-0.4,0.2-0.8,0.4
		c-0.2,0.2-0.6,0.6-1,1.1c-0.8,0-1.6,0.1-2.4,0c-0.7-0.1-1.4-0.3-2-0.5c-1.2-0.5-5.9-2-7-2.3c-0.3-0.1-0.7-0.1-1-0.1
		c-0.7,0-1.4,0-2,0c-1-0.4-2-0.8-3.1-1.3c-0.6,0-1.4,0-2.2,0c-0.8,0-1.5,0.2-2.2-0.3c-0.9,0-1.7,0-2.6,0c-0.5,0.2-1.1,0.4-1.8,0.7
		c-0.5,0-1.2,0-2,0c-0.5,0.5-1,1-1.4,1.4c0,0.3,0,0.5,0,0.6c0.3,0.6,1,0.6,1.6,1.1c0.2,0.5,0.6,1.1,0.8,1.6c0.4,0.5,0.8,0.9,1.1,1.2
		c0.9,0.2,1.6,0.5,2.3,0.7c0.8,0.2,1.6,0.6,2.5,0.5c0.4,0,0.7,0.2,1.1,0.3c1.2,0.3,2.4,0.8,3.7,0.7c0.9,0.8,2.2,1,2.8,2.2
		c0,0.3,0,0.6,0,0.9c-0.8,0.5-1.7,0.7-2,1.6c0,0.1-0.3,0.2-0.4,0.3c-0.7,0.6-1.4,1.2-1.9,2c-0.2,0.3-0.5,0.6-0.8,0.8
		c-1,0.6-1.7,1.5-2.5,2.3c-0.3,0.8-1,1.2-1.5,1.9c0,0.5,0,1,0,1.4c-0.3,0.7-0.8,0.8-1.3,1c-0.3,0.1-0.7,0.2-1.1,0.4
		c-0.8,1.1-1.6,2.3-2.5,3.5c0,0.5,0,1,0,1.6c-0.2,0.2-0.3,0.3-0.5,0.4c-0.4,0-0.7,0.1-1.2,0.2c-0.1,0.1-0.3,0.4-0.6,0.8
		c0,0.1-0.1,0.5-0.1,0.9c-0.4,0.2-0.9,0.5-1.4,0.8c-0.4,1-0.8,1.9-1.1,2.7c-0.7,0.8-1.2,1.4-1.8,2.2c-0.2,0.1-0.6,0.3-0.9,0.4
		c-0.2,0-0.3,0-0.4,0c-0.6-0.2-1-0.5-1.5-1c-0.4-0.5-0.9-0.8-1.3-1.2c-0.3-1.4-1.3-2.5-1.1-4.1c-0.3-0.4-0.6-0.9-0.9-1.3
		c-0.4-0.5-0.7-1.1-0.7-1.8c0-0.6-0.3-1.1-0.5-1.7c-0.1-0.3-0.2-0.6-0.4-1.1c-0.6-0.5-1.4-1.1-2-1.7c-0.2-0.6,0-1.1,0.2-1.5
		c-0.1-0.6-0.5-1.2-0.7-1.8c-0.2-0.7-0.7-1.3-1.4-1.6c-0.6-0.3-1.2-0.7-1.8-1.1c-0.2-0.3-0.4-0.7-0.5-0.9c-0.4-0.9,0.6-1.5,0.1-2.4
		c-0.1-0.1-0.3-0.3-0.5-0.3c-0.6-0.2-1.1-0.3-1.6-0.9c-0.1-0.8-0.1-1.6,0.3-2.2c-0.1-0.4-0.2-0.7-0.4-1.1c0.6-0.5,1.2-1.1,1.9-1.7
		c0.9-0.3,1.6-0.9,2-1.8C334.7,129.6,335.7,128.9,336.4,128z"/>
	<path vector-effect="non-scaling-stroke" class="st0" d="M432.9,181.5c0,0.5,0,1,0,1.4c-0.6,1.2-1.2,2.4-1.8,3.6
		c-0.1,0.2-0.2,0.5-0.4,0.7c-0.7,0.9-1.6,1-2.6,0.6c-0.2-0.1-0.4-0.2-0.6-0.3c-0.3-1-0.9-2-1.4-2.9c-0.5-0.8-0.8-1.6-1.2-2.4
		c-0.1-0.1-0.1-0.3-0.2-0.4c-0.5-0.6-0.8-1.2-1-2c-0.1-0.7-0.3-1.4-0.3-2.1c-0.2-0.4-0.4-0.9-0.7-1.4c0-0.9,0-1.9,0-2.8
		c-0.4-1-0.9-1.9-1-2.9c0-0.2-0.2-0.4-0.2-0.6c-0.4-1-1-1.8-1.2-2.8c-0.1-0.4-0.4-0.8-0.7-1c-0.6-0.5-1.1-1-1.6-1.6
		c-1-2.7-3-4.7-4.9-6.9c-0.3-0.5-0.6-1.1-0.9-1.9c-0.3-0.3-0.7-0.7-1.1-1c-0.6-0.3-1.2-0.7-1.9-1c-0.4-0.7-0.8-1.3-1.3-2.2
		c-0.4-0.4-1-1-1.7-1.4c-0.8-0.5-1.1-1.3-1.4-2.1c-0.7-0.7-1.3-1.4-2.1-1.9c-0.5-0.3-1-0.8-1.2-1.3c-1-1.4-2.2-2.5-3.6-3.4
		c-0.4-0.2-0.7-0.5-1-0.8c-0.1-0.7-0.7-1.3-0.4-2c0.2-0.5,0.7-0.5,1.3-0.6c0.3-0.3,0.6-0.8,0.8-1c1.4-0.7,2.5-1.3,3.7-1.2
		c0.5-0.2,0.9-0.4,1.4-0.7c1,0.1,2-0.2,3-0.5c0.3-0.1,0.6-0.1,0.9,0c0.1,0.1,0.3,0,0.4,0c0.4-0.2,0.9-0.1,1.2,0.1
		c0.4,0.2,0.8,0.2,1.1,0.1c1.3-0.4,2.6-0.7,3.8-1.2c0.7,0.1,1.4-0.1,2.1,0.3c0.6-0.6,1.1-1.2,1.7-1.8c0-0.2,0-0.5,0-0.8
		c-0.9-1.5-2-2.9-3.1-4.3c-0.4-0.5-0.7-1-1-1.4c-0.2-0.3-0.3-0.6-0.4-0.9c0-0.9-0.5-1.5-1.1-2.1c-0.1-0.1-0.1-0.2-0.2-0.3
		c-0.1-0.4-0.1-0.8,0.2-1.2c0.2-0.3,0.2-0.7,0.2-1.1c0.1-0.1,0.3-0.3,0.4-0.4c0.2,0,0.4,0,0.5,0c1.9,0.7,2.5,1.1,4,2.6
		c0.6,0.6,1.1,1.2,1.9,1.6c1,0.6,1.8,1.4,2.6,2.2c0.3,0.1,0.5,0.1,0.8,0.2c1.2,1.1,1.7,2.7,2.7,4c0.6,0.3,1.2,0.6,1.9,1
		c0.8,0.6,1.3,1.6,2.4,2c0.3,0.5,0.5,1,0.7,1.2c0.6,0.7,1.1,1.3,1.6,1.9c0.3,0.3,0.7,0.7,1.1,0.9c0.8,0.4,1.3,1,1.7,1.7
		c0.4,0.6,0.8,1,1.4,1.3c1.5,1,3,2.1,4.3,3.4c0.4,0.4,0.7,0.8,1,1.2c0.4,0.6,1,1.2,1.6,1.6c0.7,0.4,1.2,1,1.7,1.5
		c0.7,0.6,1.2,1.4,2.1,1.8c0.2,0.1,0.3,0.3,0.4,0.5c0.4,0.7,1,1.1,1.8,1.3c0.4,0.1,0.8,0.3,1.2,0.5c-0.1,0.8-0.9,1-1.1,1.6
		s-0.7,1.1-0.9,1.8c-0.3,0.2-0.6,0.5-0.9,0.7c-0.5,0.4-0.7,1-0.8,1.6c-0.1,0.7-0.4,1.2-0.9,1.7c-1.3,1.4-2.6,2.9-4,4.4
		c0.1,1.1-0.7,1.9-1.4,2.6c-0.5,0.9-0.8,1.8-1.4,2.5c-0.4,0.5-0.5,1-0.7,1.6c-0.2,0.7-0.5,1.3-1,1.8c-0.3,0.4-0.6,0.8-0.8,1.2
		c-0.4,1.2-0.9,2.3-1.4,3.4c-0.3,0.8-0.6,1.6-1.1,2.3C433.6,180.1,433.3,180.8,432.9,181.5z"/>
	<path vector-effect="non-scaling-stroke" class="st0" d="M292.4,142.4c-0.7,0.1-1,0.1-1.4,0.2c-0.1,0.1-0.3,0.3-0.4,0.4
		c0,0.2-0.1,0.3-0.1,0.4c0.4,0.9,0.3,1.8,0.3,2.7c0.2,0.5,0.4,1,0.7,1.5c0.2,0.5,0.4,1,0.6,1.6c0,0.6,0,1.3,0,2
		c-0.3,0.3-0.5,0.6-0.8,0.9c-0.5,0-1,0-1.5,0c-0.8,0-1.5,0.2-2.2,0.3s-1.3,0.5-1.9,0.9c-0.2,0.2-0.5,0.2-0.9,0.4c-0.6,0-1.3,0-1.9,0
		c-1.2,0.5-2.1,1.1-3.2,1.4c-0.6,0.2-1.3,0.2-1.8,0.6c-0.5,0.4-1,0.7-1.5,1c-0.2,0.1-0.4,0.2-0.6,0.3c-1.2,0.3-2.2,1.1-3.3,1.5
		c-1,0.3-1.8,1-2.5,1.8c-1.6-0.1-3,0.7-4.2,1.7c-0.7,0.5-1.3,0.9-2.1,1c-0.6,0.1-1.2,0.3-1.7,0.8c-0.5,0.4-1.2,0.7-2,1
		c-0.2,0.3-0.5,0.6-0.8,1c-0.6,0.3-1.3,0.5-2.1,0.4c-1.6,0.8-3.1,1.5-4.5,2.6c-0.3,0.3-0.7,0.5-1,0.8c-0.5,0.5-1,0.8-1.7,0.9
		c-1.3,0.2-2.3,0.8-3.2,1.7c-0.4,0.4-0.7,0.8-1,1.1c-1.2,0.2-2.1-0.1-2.9-0.7c-0.9-0.6-1.9-0.7-2.9-0.9c-0.3,0-0.6,0-0.9,0
		c-0.4-0.3-0.9-0.6-1.3-0.9c-0.5-0.4-1-0.7-1.7-0.8c-0.5,0-0.9-0.3-1.5-0.4c-0.2-0.4-0.5-0.8-0.7-1.1c0-0.9,0.5-1.7,0.3-2.6
		c0.2-0.3,0.4-0.7,0.7-1c0-0.5,0-1,0-1.3c0.3-0.7,0.6-1.2,1-1.9c0-0.4,0-0.9,0-1.3c0.4-0.6,0.7-1.1,1-1.6c0-0.4,0-0.8,0-1.1
		c0.2-0.4,0.4-0.8,0.7-1.2c0-0.1,0-0.3,0-0.5c-0.2-1.2,0.3-2.3,0.5-3.5c0-0.2,0.1-0.4,0.2-0.6c0-0.2,0-0.4,0-0.7
		c-0.2-0.4-0.4-0.9-0.6-1.3c0-0.1,0-0.2,0.1-0.3c0.3-0.4,0.5-0.8,0.8-1.2c0-0.4,0.1-0.8,0.1-1.2c0.3-0.6,0.6-1.2,0.9-1.9
		c0.1-0.6,0-1.1-0.4-1.5c0.3-0.5,0.5-0.8,0.8-1.2c0-0.2,0-0.4,0-0.6c0-0.5-0.7-0.6-0.6-1.1c0.5-0.4,1-0.7,1.6-1.1
		c-0.1-1.2,0.5-2.3,1-3.4c-0.1-0.4-0.2-1-0.4-1.4c0.4-1.2,1.3-2.1,1.3-3.4c0.5-0.9,1.3-1,2.2-1.2c0.4-0.1,0.7-0.2,1.1-0.3
		c1,0.2,1.9,0.8,2.8,1.4c0.6,0.4,1.2,0.8,1.9,0.9c0.5,0.1,1,0.4,1.5,0.6c0.7,0.2,1.3,0.5,2.1,0.4c0.7,0.8,1.6,0.9,2.5,1.3
		c0.4,0,0.9,0,1.1,0c2.3,0.8,4.3,1.5,6.5,2c0.7,0.2,1.4,0.3,2.2,0.6c1.3,0.5,2.7,0.7,4,1.2c0.4,0.2,0.9,0.2,1.3,0.1
		c1.1-0.1,2.1,0.3,3.1,0.5c0.1,0,0.2,0.1,0.3,0.1c0.6,0,1.1,0,1.6,0.1s1,0.2,1.6,0.3c1,0.1,2-0.1,2.9,0.3c0.1,0.1,0.3,0,0.5,0
		c0.6,0.1,1.2-0.1,1.8,0.2c0.5,0.3,1.2,0,1.7,0.4c0,0,0.1,0.1,0.2,0.1c1.2-0.2,2.3,0.6,3.4,0.7c0.2,0,0.4,0.1,0.6,0.2
		c0.7,0.3,1.3,0.7,2.1,0.9C292,142,292.1,142.1,292.4,142.4z"/>
	<path vector-effect="non-scaling-stroke" class="st0" d="M302.6,121.9c0.1,0.2,0.2,0.3,0.3,0.4c0.6,0.5,1.2,0.9,1.9,1.4
		c0.1,0.2,0.3,0.6,0.5,1c1.6,1.3,3.4,2.4,4.7,4.3c0.6,0.3,1.2,0.6,1.9,1c0.1,0.3,0.2,0.6,0.3,0.9c0.5,1,1.7,1.2,2.5,1.9
		c0,0.7,0,1.3,0,2c-0.9,0.9-1.7,1.7-2.5,2.6c0,0.5-0.1,1-0.1,1.6c-0.2,0.1-0.4,0.3-0.6,0.5c-0.2,0.1-0.4,0.2-0.7,0.3
		c-0.6,0-1.2,0-1.9,0c-0.5-0.2-1-0.4-1.8-0.6c-0.3,0-0.8,0-1.2,0c-0.7-0.3-1.3-0.6-1.9-1c-0.7-0.1-1.4,0.1-2.1-0.4
		c-0.7,0.1-1.3-0.3-2.1-0.4c-0.4,0-0.7-0.3-1-0.4c-0.6-0.2-1.1-0.5-1.6-0.7c-0.6-0.3-0.8-0.9-1-1.4c0.1-0.4,0.2-0.8,0.3-1.2
		c-0.3-0.2-0.5-0.4-0.7-0.5c-1-0.5-1.8-1.1-2.3-2.3c0-0.5,0-1,0-1.7c-0.2-0.2-0.4-0.3-0.6-0.5s-0.4-0.3-0.6-0.4
		c-0.3-0.5,0-0.9,0.2-1.2c0-0.1,0-0.2-0.1-0.3c-0.5-1-1.2-1.8-2.2-2.2c-0.4-0.2-0.8-0.4-1.1-0.6c-0.3-0.5-0.1-1.1-0.2-1.7
		c-0.2-0.1-0.5-0.3-0.7-0.5c-0.3-0.2-0.6-0.5-0.8-0.7c-0.1-0.3-0.1-0.5-0.1-0.8c-0.7-0.9-1.5-1.7-2.7-2.2c0.3-0.3,0.4-0.6,0.5-0.7
		c0.4-0.2,0.8-0.3,1.2-0.5c0.7-0.4,1.5-0.3,2.2-0.5s1.5-0.1,2.3-0.2c0.2-0.2,0.5-0.4,0.7-0.6c0.3,0,0.7,0,1-0.2
		c0.6-0.3,1.2-0.3,1.9,0c0.3,0.1,0.6,0.1,1,0.1c0.7,0,1.3,0,2,0c0.5,0,0.9,0.1,1.3,0.3c0.3-0.1,0.6-0.3,1-0.4
		c0.1-0.2,0.3-0.5,0.6-0.8c0.3,0,0.7,0,1.1,0c0.5,0.3,1,0.6,1.5,0.9c1.2,0.2,2.2-0.1,3.1-0.5c0.8-0.3,1.5-0.6,2.3-0.4
		c0.4-0.4,0.8-0.7,1.1-1c1,0,2.1,0,2.9-0.7c0-0.4,0.1-0.8,0.1-1.1c0.7-0.6,1.4-1.1,2.2-1.8c0.8-0.3,1.6-0.5,2.5-0.4
		c1,0.1,1.8-0.2,2.6-0.6c0.3-0.2,0.6-0.2,0.9-0.4c0.8-0.4,1.6-0.6,2.5-0.7c0.4,0,0.8-0.1,1.3-0.1c1.2,0.5,2.7,1,4.1,1.5
		c0.3,0.5,0.1,0.9,0.2,1.3c0.3,0.5,0.7,0.8,1.2,1c0.6,0.2,1,0.6,1.6,0.8c0.5,0.2,0.8,0.6,1.2,1c-0.1,0.3-0.1,0.6-0.2,0.7
		c-0.3,0.4-0.7,0.7-1.1,1c0,0-0.1,0-0.2,0.1c-0.6,0.3-0.6,1.1-1.3,1.4c-0.6,0.2-1,0.8-1.3,1.4c-0.4,0.2-0.8,0.4-1.2,0.6
		c-0.7,0.8-1.6,1.5-2.2,2.5c-0.5,0.7-1.1,1.2-1.7,1.7c-0.5,0.2-0.9,0.5-1.6,0.8c-0.3,0.3-0.7,0.8-1.1,1.3c-0.3,0-0.6,0-1,0
		c-0.6-0.3-1.2-0.7-1.9-1.1c-0.3-0.2-0.7-0.4-1-0.5c-1.7-0.6-3.3-1.5-4.9-2.4c-0.9-0.5-2-1-3-1.2c-0.9-0.2-1.9-0.1-2.8,0
		c-0.7,0.1-1.3,0.4-2,0.7c-0.4,0.2-0.8,0.5-1.2,0.8C302.8,121.7,302.7,121.8,302.6,121.9z"/>
	<path vector-effect="non-scaling-stroke" class="st0" d="M259.5,85.2c-1,0-2.1,0-3.1,0c-0.6,0.3-1.1,0.6-1.7,0.8
		c-0.7,0.3-1.4,0.6-2.2,0.5c-0.4,0-0.9,0.1-1.3,0.2c-0.9,0.3-1.8,0-2.6-0.4c-0.6-0.2-1.1-0.5-1.7-0.9c-0.9,0-1.8,0-2.8,0
		c-0.9-0.6-1.8-1.3-2.7-1.9c0.1-0.4,0.2-0.7,0.2-1s0-0.6,0-0.8c-0.3-0.7-0.8-1.2-0.7-2c-0.5-0.7-0.6-1.5-0.8-2.2s-0.4-1.4-0.5-2.2
		c-0.1-0.4-0.3-0.7-0.4-1c-0.3-0.6-0.6-1.1-1-1.8c-0.4-0.4-1.1-0.4-1.5-1c-0.1-0.5,0.6-0.6,0.6-1.1c0-0.1,0-0.3,0-0.5
		c-0.4-0.4-0.7-0.8-1.2-1.2c0-0.2-0.1-0.4-0.2-0.7c-0.3-0.3-0.6-0.7-1-1.1c0.1-0.3,0.1-0.5,0.2-0.9c-0.2-0.5-0.4-1-0.6-1.6
		c-0.6-0.9-1.2-1.8-1.8-2.6c0.1-0.3,0.4-0.5,0.7-0.6c0.5-0.1,1-0.3,1.4-0.3c0.7-0.1,1.3,0,2,0c0.9,0.5,1.9,0.8,2.8,1.5
		c0.2,0.2,0.5,0.3,0.7,0.4c1.2,0.4,2.2,1,3.4,1.5c0.7,0.3,1.4,0.5,2.2,0.5c0.4,0,0.8,0,1.2,0c0.4,0.4,0.9,0.8,1.2,1.2
		c0.5,0.2,1,0.2,1.4,0.6c0.7,0.7,1.6,0.9,2.5,1.1c1,0.2,2,0.7,2.9,0.5c0.3,0.2,0.7,0.3,0.9,0.5c0.1,0.1,0.2,0.3,0.3,0.5
		c0.3,0,0.7,0,1.1,0.1c0.9,0.1,1.7,0.2,2.5,0.6c0.7,0.4,1.5,0.6,2.2,0.9c0.6,0.3,1.3,0.3,2,0.4c0.6,0.1,1.3,0.2,1.9,0.3
		c0.6,0.1,1.1,0.4,1.7,0.6c0.7,0.2,1.3,0.5,2,0.4c0.9-0.1,1.7,0.4,2.5,0.4c0.9,0,1.7,0.3,2.5,0.6c0.9,0.3,1.8,0.3,2.6,0.7
		c0.9-0.1,1.7,0.4,2.5,0.4c0.4,0,0.8,0.2,1.2,0.3s0.8,0.1,1.2,0.3c1,0.4,2.2,0.6,3.2,0.7c0.7,0.1,1.2,0.4,1.9,0.4
		c0.6,0,1.1,0.3,1.7,0.6c0.6,0.3,1.2,0.6,1.7,0.9c0.1,0.1,0.2,0.2,0.4,0.4c-0.3,0.2-0.5,0.4-0.7,0.4c-0.8,0.2-1.5,0.5-2.3,0.7
		s-1.4,0.6-2.1,0.8c-0.7,0.2-1.4,0.3-2.1,0c-0.7-0.2-1.3-0.2-1.9,0c-0.4,0.1-0.7,0.2-1.1,0.2c-0.7,0-1.3-0.1-1.9,0.3
		c-0.1,0.1-0.2,0-0.3,0c-1.1,0-2.2,0-3.1,0.6c-0.2,0.1-0.4,0.1-0.6,0.1c-0.5,0-1,0-1.5,0c-1.5,0-2.6,0.3-4,1
		c-0.2,0.1-0.4,0.2-0.6,0.3c-0.5,0-0.9,0-1.3,0c-0.6,0-1.1,0.1-1.7,0.3c-0.5,0.1-1,0.4-1.6,0.4c-0.5,0-1,0.2-1.4,0.4
		c-0.3,0.1-0.6,0.3-0.9,0.3c-0.6,0-1.1,0.2-1.4,0.7C260.7,84.7,260.2,84.9,259.5,85.2z"/>
	<path vector-effect="non-scaling-stroke" class="st0" d="M124.3,110c0.1-0.6,0.3-1,0.4-1.7c0.2-0.2,0.5-0.6,0.9-1
		c-0.1-0.3-0.2-0.7-0.3-1c0.3-0.5,0.7-1.1,1-1.6c-0.2-0.4-0.4-0.6-0.7-0.8c-0.2-0.1-0.4-0.3-0.7-0.6c0.2-0.2,0.3-0.4,0.4-0.5
		c0.3-0.2,0.6-0.3,0.8-0.5c0.1-0.3,0.2-0.6,0.3-1c0.5-0.3,1.1-0.6,1.7-1c-0.1-0.5-0.1-0.9-0.2-1.4c0.6-0.6,1.1-1.1,1.6-1.7
		c-0.1-0.3-0.2-0.7-0.3-1c0-0.4,0-0.8,0-1c-0.2-0.5-0.3-0.8-0.4-1c0.6-1.2,1.8-1.6,2.9-2.2c0.2-0.4,0.5-0.9,0.8-1.4
		c-0.1-0.2-0.2-0.5-0.3-0.7c0.1-0.2,0.2-0.5,0.3-0.7c0.5-0.4,1-0.8,1.5-1.2c0.1-0.3,0.1-0.6,0.1-0.8c0.3-0.6,0.9-0.5,1.2-0.9
		c1,0.2,2,0.5,2.9,0.7c0.6,0.1,1,0.5,1.8,0.9c0.3,0,0.9,0,1.3,0c0.5-0.3,0.7-0.6,0.5-1.1c-0.7-0.6-1.3-1.1-2.1-1.8
		c-0.5-0.1-1.2-0.3-2-0.5c-0.1-0.3-0.1-0.8-0.2-1.1c-0.1-0.4-0.3-0.7-0.5-1.1c0-0.3,0-0.6,0-1c0.3-0.3,0.6-0.7,0.9-1
		c0-0.2,0.1-0.4,0.1-0.7c1.1-1.3,2.4-2.2,3.8-3.1c0.6,0,1.1,0,1.7,0c0.3,0.1,0.6,0.3,0.9,0.4c0.1,0.2,0.3,0.5,0.4,0.7
		c0.1,0.3,0.1,0.5,0.2,0.8c0.2,0.1,0.5,0.3,0.7,0.4s0.3,0.3,0.5,0.5c-0.1,0.3-0.2,0.6-0.3,0.9c0.1,0.6,0.3,1.2,0.5,2.1
		c0.2,0.3,0.5,0.8,0.8,1.3c0,0.3,0,0.6,0,0.9c0.1,0.1,0.2,0.3,0.4,0.5c0.5,0.5,0.9,1.1,0.9,1.8c0,0.7,0.6,1.3,1,1.8
		c-0.2,0.5-0.3,0.9-0.5,1.4c0.3,0.3,0.6,0.5,1,0.8c0.1,0.3,0.3,0.8,0.5,1.3c0.2,0.2,0.5,0.5,0.8,0.9c0,0.4,0,0.8,0,1.2
		c0.3,0.4,0.6,0.9,0.9,1.2c0.3,0.4,0.7,0.7,1,1c0.1,0.3,0.1,0.6,0.2,0.8c0.1,0.1,0.2,0.3,0.4,0.3c0.7,0.3,1.1,0.8,1.3,1.4
		c0.3,0.9,0.7,1.7,1.1,2.5c0.1,0.2,0.1,0.4,0.2,0.8c0.3,0.2,0.6,0.5,1.1,0.9c0.3,0.1,0.9,0.4,1.4,0.6c0,0.6,0,1,0,1.6
		c0.3,0.2,0.6,0.5,1,0.8c0.1,0.2,0,0.6,0.1,1c0.1,0.3,0.2,0.6,0.3,0.9c-0.4,0.7-1.2,0.6-1.7,0.9c-0.2-0.1-0.3-0.2-0.5-0.3
		c-0.2,0.1-0.5,0.2-0.7,0.3c-0.3,0.1-0.7,0-1,0c-3.3,0-6.7,0-10.1,0c-0.6,0-1.2-0.1-1.8,0.2c-0.5,0.3-1.1,0-1.6,0.3
		c-0.4,0.2-0.8,0.2-1.2,0c-0.6-0.3-1.3-0.2-1.9,0c-0.3,0.1-0.5,0.2-0.8,0.2c-0.7,0.1-1.5-0.1-2.1,0.2c-0.7,0.3-1.4,0-2,0.5
		c-0.8,0-1.5,0-2.2,0c-0.7,0.2-1.2,0.4-1.9,0.7c-0.4,0-1,0-1.5,0c-0.7,0-1.3,0-1.9,0.3c-0.4,0.2-1,0.1-1.4,0.1
		C125.2,111,124.6,110.7,124.3,110z"/>
	<path vector-effect="non-scaling-stroke" class="st0" d="M173.2,99.5c-0.3-0.6-0.1-1.1-0.4-1.5c-0.3-0.4-0.4-0.9-0.6-1.5
		c-0.1-0.1-0.3-0.2-0.5-0.5c-0.4-0.1-0.8-0.1-1.1-0.2c-0.1-0.1-0.3-0.2-0.4-0.4c0-0.3,0-0.6-0.1-0.9c-0.2-0.4-0.4-0.7-0.6-1.1
		c0.2-0.4,0.4-0.9,0.6-1.3c-0.3-0.6-0.5-1.1-0.9-1.9c-0.3-0.2-0.7-0.6-1.1-0.9c0-0.3,0-0.6,0-0.9c0-0.2,0.1-0.4,0.2-0.6
		c-0.3-0.3-0.6-0.6-0.9-1c0-0.6,0-1.2,0-1.9c-0.5-0.5-1-1.1-1.5-1.6c-0.3-0.5-0.1-1-0.4-1.4c-0.4-0.6-0.9-1.1-1.3-1.6
		c-0.6-0.2-1.1-0.5-1.7-0.7c0-0.4,0-0.6,0-1c0.4-0.5,0.9-0.9,1.3-1.4c-0.2-0.4-0.4-0.9-0.7-1.3c-0.2-0.4-0.4-0.8-0.6-1.1
		c0-0.5,0.5-0.4,0.7-0.5c0.5,0.1,0.9,0.2,1.3,0.1c0.9-0.1,1.6,0.3,2.4,0.4c0.2,0,0.4,0.1,0.6,0.3c0.7,0.4,1.3,0.7,2.1,0.7
		c0.6,0,1.2,0.3,1.6,0.7c0.4,0.4,0.9,0.6,1.3,0.9c1,0.3,1.9-0.4,2.8-0.6c0.1,0.1,0.3,0.2,0.4,0.3c-0.1,0.3-0.1,0.7-0.2,1
		c0.8,0.5,1.6,0.9,2.5,1.2c1,0.4,2.1,0.9,3.1,1.3c0.6,0.2,1.1,0.5,1.7,0.6c0.7,0.1,1.2,0.4,1.8,0.7c0.8,0.4,1.5,0.8,2.3,1.1
		c0.5,0.3,1,0.6,1.7,0.6c0.4,0,0.7,0.3,1.1,0.5c0.3,0.7,0.9,1.3,1.8,1.6c-0.4,0.5-0.6,0.9-0.8,1.1c0.1,0.1,0.1,0.2,0.1,0.2
		c0.4,0.3,0.8,0.5,1.2,0.8c0.7,0.5,1.4,1,1.9,1.7c0.4,0.7,1.2,1,2,1.4c-0.1,0.5-0.2,0.9-0.3,1.2c0.6,0.5,1.5,0.6,1.9,1.3
		c0.2,0.5,0.4,1,0.5,1.4c0.5,0.4,1,0.8,1.5,1.1c0,0.3,0.1,0.7,0.1,1c0.2,0.2,0.3,0.5,0.6,0.9c0,0.3,0,0.8,0,1.2
		c0.1,0.4,0.2,0.7,0.3,1c-0.5,0.7-0.9,1.3-1.3,1.9c0,0.5,0,0.8,0,1.1c0.2,0.7,0.8,1.2,0.6,2.1c-0.2,0.2-0.4,0.5-0.6,0.8
		c0,0.2,0,0.3,0,0.4c0.3,0.6,0.4,1.1,0.3,1.8c-0.1,0.2-0.2,0.5-0.4,0.8c-0.3,0.1-0.7,0.4-1.1,0.4c-0.7,0-1.2,0.4-1.9,0.4s-1.3,0-2,0
		c-0.4,0-0.9,0.2-1.4,0.3c-0.6-0.3-1.3-0.3-2.1-0.6c-0.5-0.2-1.1-0.1-1.6,0.1c-0.9,0.3-1.7,0.3-2.5,0.1c-0.4-0.1-0.9-0.2-1.3-0.2
		c-0.7,0-1.4,0-2.1,0c-0.5,0-1.1,0-1.6,0.3c-0.3,0.1-0.7,0.1-1,0.1c-0.4-0.2-0.8-0.4-1.1-0.6c-0.4-0.2-0.9-0.1-1.2-0.7
		c0-0.1-0.1-0.3-0.1-0.6c-0.2-0.3-0.5-0.6-0.9-1c0-0.9-0.6-1.6-1.2-2.2c-0.1-0.3-0.1-0.6-0.2-1c-0.5-0.4-1.1-0.9-1.7-1.3
		c-0.1-0.8-0.1-0.8,0.2-1.5c-0.1-0.4-0.2-0.7-0.4-1.1C173.7,99.9,173.5,99.7,173.2,99.5z"/>
	<path vector-effect="non-scaling-stroke" class="st0" d="M148.6,141.1c0.2-0.3,0.4-0.5,0.6-0.8c0-0.4,0-0.8,0.1-1.1
		c0.6-0.8,0.9-1.7,1-2.6c0.1-0.4,0.4-0.8,0.7-1.1c0.2-0.3,0.6-0.5,0.6-0.6c0.7-1.3,1.1-2.3,1.3-3.4c0.2-0.8,0.7-1.6,1-2.1
		c0.7-0.8,1.1-1.4,1.6-2c0-0.5,0-0.8,0-1c0.3-0.9,0.7-1.5,1.4-1.9c0.2-0.1,0.3-0.4,0.5-0.7c-0.3-0.5-0.5-1-0.8-1.6
		c-0.2-0.2-0.5-0.3-0.7-0.5c0-0.1-0.1-0.2-0.1-0.3c0-0.6-0.1-1.2-0.4-1.7c0.1-0.2,0.1-0.4,0.2-0.5c0.1-0.1,0.2-0.1,0.3-0.3
		c0.6-0.2,1.3-0.1,2-0.4s1.1-0.9,1.8-1c1.5-0.1,3,0,4.5,0.6c1.6-0.8,3.1,0,4.6,0.6c0.1,0.2,0.3,0.4,0.3,0.7c0.1,0.3,0,0.7,0,0.9
		c1,1.2,1.9,2.2,2.9,3.3c0,0.1,0.1,0.4,0.1,0.7c0.2,0.2,0.5,0.5,0.7,0.8s0.3,0.6,0.5,0.8c0.3,0.2,0.6,0.4,0.9,0.5
		c0.2,0.3,0.3,0.6,0.5,1c-0.1,0.7,0.1,1.4,0.5,2.2c0.1,0.1,0.5,0.3,0.7,0.6c0.3,0.3,0.5,0.7,0.7,1s0.4,0.7,0.6,1
		c-0.1,0.2-0.1,0.3-0.2,0.5c0.3,1.1,1.2,1.6,1.8,2.3c0.6,0.6,1.5,0.5,1.8,1.3c-0.3,0.7-0.7,1.3-1,2c0.3,0.6,0.6,0.9,1.2,1.1
		c0.4,0.2,0.9,0.2,1.1,0.8c-0.1,0.3-0.3,0.7-0.5,1.1c-0.4,0.2-0.9,0.4-1.3,0.7c-1.1,0.6-2.2,1.2-3.2,1.9c-0.7,0.5-1.5,0.8-2.3,1
		c-1.2,0.3-2.3,0.7-3.4,1.4c-0.5,0.4-1.1,0.7-1.7,0.9c-0.8,0.2-1.5,0.6-2.2,1.1c-0.5,0.4-1,0.6-1.6,0.6c-0.7,0-1.2,0.3-1.8,0.6
		c-0.5,0.2-1,0.4-1.5,0.6c-1.2,0.4-2.3,0.9-3.3,1.6c-0.3,0.2-0.6,0.3-0.8,0.4c-0.9,0.2-1.7,0.2-2.4,0.5c-1.1,0.4-2.3,0.7-3.4,1.2
		c-1,0.5-2.1,0.8-3.2,0.7c-0.4,0-0.8,0-1.2,0c-0.3-0.3-0.6-0.6-0.9-0.8c0-0.9,0-1.7,0-2.5c-0.2-0.3-0.4-0.6-0.6-0.9
		c0-0.1,0.1-0.3,0.1-0.4c0.3-0.7,0.5-1.4,1-2c0.6-0.8,0.9-1.7,0.9-2.7c0-0.5-0.1-1,0.3-1.4c0.1-0.2,0.1-0.5,0.1-0.8
		C148.7,142.2,148.6,141.7,148.6,141.1z"/>
	<path vector-effect="non-scaling-stroke" class="st0" d="M111.6,99.8c0.3,1,0.6,1.8,1,2.8c-0.4,0.5-0.9,0.9-1.3,1.4
		c0,0.2,0,0.3,0,0.6c0.3,0.4,0.7,0.8,1,1.1c0.1,1-0.6,1-1.2,1.2c-0.2,0.4-0.4,0.7-0.6,1.1c-0.1,0-0.2,0.1-0.3,0.1
		c-1.2,0.1-2.2-0.2-3.2-0.7c-0.2-0.1-0.5-0.2-0.8-0.3c-2-0.7-3.9-1.5-5.6-2.7c-0.5-0.3-0.9-0.5-1.5-0.6c-0.5,0-0.9-0.3-1.5-0.4
		c-0.2-0.2-0.4-0.4-0.6-0.5c-0.1-0.5-0.1-0.8-0.1-1.1c-0.1-0.1-0.2-0.2-0.3-0.2c-0.4-0.2-0.9-0.4-1.3-0.7c-0.6-0.3-1-0.6-1.5-1
		c-1.2-1-2.6-1.6-4-2.3c-0.8-0.1-1.2-0.6-1.5-1.3c0-0.1-0.1-0.2-0.2-0.3c0-0.4,0-0.8,0-1.4c0.6-0.9,1-2.1,1.3-3.3
		c0.2-0.2,0.5-0.5,0.7-0.8s0.4-0.7,0.6-1c-0.1-0.3-0.1-0.5-0.2-0.8c0.2-0.4,0.2-1,0.6-1.4s0.6-0.9,0.6-1.5c0.6-0.8,1.4-1.5,1.3-2.6
		c0.7-0.9,1.7-1.5,1.9-2.6c-0.1-0.4-0.3-0.8-0.4-1.2c0.6-1,1.5-1.2,2.4-1.6s1.9-0.6,2.4-1.4c0-0.2,0.1-0.5,0.1-0.9
		c0.1-0.1,0.4-0.3,0.6-0.5c1-0.3,2-0.6,2.9-1.1c0.7-0.4,1.3-0.8,2.1-0.7c1-0.5,2.1-0.6,3.1-1s2.1-0.5,3.1,0c0.1,0.1,0.3,0.1,0.5,0.1
		c1.2,1.1,2.5,2.2,3.7,3.4c0.4,0.4,0.9,0.6,1.4,0.8c0.4,0.1,0.8,0.3,1.1,0.4c0.9,1,1.1,2.1,1.4,3.2c-0.2,0.2-0.3,0.4-0.5,0.5
		c-0.5,0.3-0.9,0.6-1.4,0.9c-0.5,0.7-0.4,1.7-0.8,2.5c-0.5,0.9-0.1,1.8-0.4,2.8c-0.5,0.5-1.4,0.8-1.8,1.6c-0.1,0.4-0.1,0.9-0.2,1.4
		s-0.3,1-0.4,1.5c-0.2,0.5-0.3,0.9-0.5,1.4s-0.5,0.9-0.5,1.3c-0.1,0.6-0.4,1.1-0.7,1.7c0,0.4,0,0.8,0,1.2c0,0.4-0.2,0.7-0.3,1.1
		C111.5,98.5,111.5,99.2,111.6,99.8z"/>
	<path vector-effect="non-scaling-stroke" class="st0" d="M343.1,73.2c-0.3-0.5-0.6-1-0.9-1.6c0.4-0.3,0.7-0.6,1.1-0.9
		c0.1-0.7,0.3-1.3,0.6-1.9c0.3-0.6,0.5-1.2,0.7-1.9c-0.1-0.2-0.2-0.6-0.2-1c0-0.3,0-0.7,0-1c0.3-0.5,0.5-1,0.8-1.5
		c0.2-0.1,0.5-0.3,0.9-0.5c0.5,0,1,0,1.6,0c0.3,0,0.7-0.1,1,0c0.7,0.4,1.4,0.2,2.1,0.4c0.8,0.3,1.5,0.4,2.3,0.6
		c1.1,0.2,2.2,0.3,3.1,1.2c0.3,0.4,0.8,0.6,1.3,0.7c1,0.3,1.7,0.8,2.2,1.7c0.2,0.3,0.5,0.6,0.8,0.9c1,0.7,1.8,1.6,2.8,2.2
		c0.3,0.2,0.6,0.5,1,0.5c0.3,0,0.6,0.1,0.7,0.3c0.6,0.6,1.3,0.7,2.1,1c0.2,0.8,0.6,1.4,1.4,1.7c0.3,0.1,0.5,0.3,0.7,0.4
		c0.6,0.2,1,0.6,1.3,1.1c0.6,1,1.3,1.7,2.5,1.9c0.5,0.1,0.7,0.4,1,0.8c0.2,0.7-0.1,1.4,0.4,2c-0.1,0.5-0.2,1-0.4,1.3
		c-0.2,0.4-0.5,0.8-0.8,1.1c-0.2,0.6,0,1.2-0.3,1.7c-0.2,0.4-0.2,0.9,0,1.2c0.4,0.8,0.3,1.4,0,2.2c-0.1,0.2-0.1,0.4-0.1,0.6
		c-0.2,0.2-0.3,0.3-0.4,0.4c-0.1,0-0.2,0-0.3,0s-0.2-0.1-0.3-0.2c-1.3-0.2-2.7-0.2-4,0c-0.9,0.2-1.7,0.3-2.5,0
		c-0.3-0.1-0.7-0.1-1-0.1c-3.3,0-6.7,0-10.1,0c-0.3,0-0.6,0.1-1,0.2c-1,0.3-2,0.2-3,0c-0.2,0-0.4-0.2-0.6-0.3
		c-0.3,0.1-0.5,0.2-0.8,0.3c-0.8,0.1-1.6-0.1-2.3,0.3c-0.2,0.1-0.4,0-0.7,0c-1.5,0-3,0-4.6,0c-0.4,0-2.2-0.5-2.6-0.7
		c-0.1-0.1-0.3-0.2-0.4-0.3c-0.1-0.1-0.1-0.2-0.2-0.3c0.3-1.1,1.1-1.9,1.6-3.1c0-0.6,0-1.2,0-1.9c0.7-1.1,1.3-2.2,2-3.3
		c-0.1-0.3-0.2-0.5-0.3-0.7c0-0.1,0-0.2,0.1-0.3c0.4-0.8,0.8-1.6,1-2.5C342.1,75.4,342.6,74.4,343.1,73.2z"/>
	<path vector-effect="non-scaling-stroke" class="st0" d="M224.4,90c0.7,0,1.4,0,2.1,0c0.3,0.2,0.6,0.3,0.9,0.5
		c0.5,0.7,0.9,1.3,1.1,2.1c0,0.5,0,1,0,1.5c0,0.3,0,0.6-0.2,1c-0.1,0.2-0.2,0.6-0.1,0.8c0.3,0.6,0.1,1.4,0.6,2
		c0.3,0.4,0.5,1,0.4,1.4c0.2,0.4,0.6,0.3,0.6,0.7c0,0.6-0.6,0.6-0.9,0.9c0,0.2,0,0.5,0,0.8c0.2,0.3,0.5,0.6,0.7,0.8
		c0.7,0.2,1.3,0.4,1.9,0.6c0,0.2,0,0.4,0.1,0.6c-0.3,0.2-0.6,0.4-0.9,0.7c0,0.8,0,1.6,0,2.7c0.2,0.4,0.6,1,0.9,1.6
		c-0.1,0.8-0.9,1.4-0.6,2.4c0.1,0.2,0.4,0.4,0.6,0.8c-0.2,0.5-0.5,1-0.7,1.5c0.2,0.5,0.4,1,0.7,1.5c0,0.3,0,0.7,0,1.1
		c-0.2,0.3-0.5,0.5-0.8,0.8c-0.5,0.1-0.9,0.2-1.4,0.3c-2.2-0.8-4.5-1.1-7-0.6c-0.4-0.1-0.8-0.2-1.2-0.2c-0.9,0-1.8,0-2.7-0.3
		c-0.4-0.1-0.8-0.3-1.2-0.3c-0.4-0.1-0.9,0-1.2-0.3c-0.1-0.1-0.3-0.1-0.5-0.1c-0.8,0-1.6,0.1-2.4-0.3c-0.2-0.2-0.5-0.4-0.7-0.7
		c-0.2-0.2-0.2-0.5-0.4-0.7c0.3-0.6,0.2-1.2-0.1-1.8c0-0.3,0.3-0.5,0.5-0.7c0.1-0.2,0.3-0.3,0.4-0.5c-0.2-0.3-0.3-0.6-0.4-0.9
		c-0.4-0.3-0.7-0.5-1-0.7c0.1-0.9,0.8-1.2,1.2-1.8c0-0.4,0-0.9,0-1.3c-0.3-1.3-1.1-2.6-1-4c-0.7-1.1-1.5-2.2-1.3-3.7
		c-0.3-0.4-0.6-0.7-1-1c0.1-0.3,0.1-0.7,0.2-1.2c0,0.1,0,0,0-0.1c-0.4-0.8-0.9-1.6-1-2.5c0-0.4-0.3-0.7-0.6-1.1
		c0.1-1.2-0.4-2.3-0.8-3.5c-0.2-0.7-0.8-1.2-1.2-1.7c0-0.6,0.7-0.6,0.9-0.9c0.3-0.3,0.6-0.6,1-0.9c0.2,0.1,0.5,0.1,0.7,0.1
		c0.5,0.3,1.1,0.5,1.6,0.7c0.7,0.3,1.4,0.3,2.1,0c0.4-0.2,0.7-0.2,1.1-0.1c0.2,0.7,0.8,1,1.5,1.2c1,0.2,1.9,0.7,3,0.8
		c0.6,0,1.1,0.3,1.7,0.5c0.5,0.2,1,0.5,1.5,0.7c0.5,0,1,0,1.6,0c0.4,0.2,0.8,0.3,1.1,0.7C223.8,89.7,224.2,89.9,224.4,90z"/>
	<path vector-effect="non-scaling-stroke" class="st0" d="M119.6,134.7c0.3-0.6,0.5-1,0.7-1.4c0-0.3,0-0.6,0-1
		c0.5-0.7,1.1-1.4,1-2.3c0.2-0.3,0.4-0.5,0.6-0.7c0.2-0.6-0.1-1.1-0.2-1.6c0.1-0.4,0.3-0.9,0.4-1.4c0.9-0.8,1.7-1.7,2.7-2.7
		c0.1-0.1,0.4-0.2,0.7-0.3c0.6,0.2,1.1,0.4,1.8,0.6c0.6,0,1.2,0,1.7,0c1,0.2,1.5,0.9,2.1,1.5c0.7,0.3,1.3,0.8,2.1,0.9
		c0.7,0.8,1.8,0.7,2.5,1.4c0.1,0.1,1.4,0.5,1.7,0.5s0.5,0,0.8,0c0.2,0.2,0.3,0.3,0.4,0.4c0.1,0.1,0.2,0.3,0.2,0.4
		c0.9,0.6,1.9,1,3,1.1c0.7,0.1,1.3,0.5,1.9,0.9c0.2,0.1,0.2,0.4,0.4,0.6c-0.2,0.3-0.3,0.5-0.5,0.7c-0.4,0.5-0.6,1-0.6,1.6
		c0,0.7-0.5,1.3-0.4,2.1c0.1,0.7-0.4,1.2-0.4,1.9c0,0.2-0.2,0.5-0.3,0.8c0.2,0.5,0.3,1,0.8,1.2c0.2,0,0.3-0.1,0.4-0.1
		c0,0.2,0.1,0.3,0,0.4c-0.4,0.4-0.6,0.9-0.7,1.4c-0.2,0.6-0.5,1.1-0.7,1.6c-0.2,0.6-0.4,1.2-0.6,1.8c-0.1,0.6-0.3,1.2-0.3,1.9
		c0,0.6,0.1,1.2-0.2,1.7c0.1,0.4,0.1,0.7,0.2,1c0.1,0.3,0.2,0.6,0.3,1c-0.4,0.6-1,1-1.4,1.5c-0.3,0.6-0.6,1.1-0.9,1.6
		c-0.4,0-0.7,0.1-1,0.1c-0.7,0-1.3,0-1.9,0.3c-0.4,0.2-0.9,0-1.3,0c-0.4-0.2-0.8-0.4-1.3-0.6c-0.5,0-1.1,0-1.6,0c-1,0.1-2-0.2-3-0.5
		c-0.8-0.3-1.7-0.4-2.3-1c-0.3-0.3-0.8-0.4-1.2-0.4c-0.7,0-1.2-0.4-1.8-0.6c-0.4-0.2-0.8-0.4-1.2-0.5c-0.9-0.2-1.6-0.8-2.5-1.2
		c-0.4,0-0.9,0-1.3,0c-0.1-0.1-0.2-0.1-0.2-0.1c-0.6-1-1.1-2-1.7-3c0.6-0.7,1.3-1.1,1.5-2.2c0-0.6,0-1.5,0-2.2
		c0.5-1.2,1-2.2,1.2-3.4C119.4,136.9,119.9,135.8,119.6,134.7z"/>
	<path vector-effect="non-scaling-stroke" class="st0" d="M226.1,153c-0.2,0.4-0.4,0.8-0.6,1.2c0,1,0,1.9,0,2.9
		c-0.3,0.6-0.7,1.1-1,1.6c0,0.4,0,0.7,0,1.1c-0.6,0.8-0.9,1.8-2.2,2.1c-0.8-0.3-1.7-0.7-2.7-1c-0.6-0.2-0.9-0.8-1.5-1.1
		c-0.2,0-0.5,0-0.6-0.1c-0.7-0.6-1.5-0.9-2.3-1.1c-0.2-0.1-0.3-0.2-0.5-0.3c-0.1-0.3-0.1-0.7-0.2-1.1c-1-0.5-2-0.9-3-1.4
		c-0.2-0.6-0.4-1.1-0.5-1.7c-0.7-0.6-1.6-0.7-2.2-1.4c-0.6-0.6-1.5-0.8-1.9-1.5c-0.1-0.4-0.1-0.8-0.2-1c-0.3-0.6-1-0.6-1.5-1.1
		c0,0-0.1-0.1-0.2-0.3c-0.4-1-1-1.8-1.8-2.5c-0.5-0.4-0.9-0.8-1.1-1.4c-0.1-0.3-0.4-0.5-0.6-0.7c-0.5-0.1-1-0.1-1.2-0.6
		c0.5-0.7,1.4-0.7,2-1.2c1.1-0.9,2.2-1.8,3.3-2.8c2-1,4.1-2.2,5.7-3.5c1.1-0.3,2.1-0.6,3-0.9c1-0.4,1.9-0.8,2.8-1.2
		c1.3-0.7,2.6-1,4-1c1-0.4,1.8-1,2.8-1.2c1-0.3,2-0.5,3-0.8c0.2,0.1,0.4,0.3,0.7,0.5c0,0.3,0,0.7,0.1,1c0.5,0.6,1,1.3,1.5,2
		c-0.3,0.5-0.5,1.1-0.9,1.7c0.1,0.3,0.2,0.6,0.3,1c-0.2,0.3-0.5,0.6-0.7,0.9c0,0.3,0,0.5,0,0.8c0.3,0.3,0.6,0.5,0.9,0.7
		c0,0.2,0,0.4,0.1,0.6c-0.5,0.6-0.9,1.2-1.3,1.7c0.4,0.6,0.4,1.3,0.2,1.8c-0.4,0.9-0.2,1.8-0.3,2.8c-0.2,0.2-0.5,0.5-0.9,0.8
		c-0.1,0.2-0.2,0.5-0.4,0.7c0,0.6,0,1.1,0,1.7c0,0.5,0,1-0.2,1.4C226.1,151.6,226.2,152.3,226.1,153z"/>
	<path vector-effect="non-scaling-stroke" class="st0" d="M134.4,195.5c-0.3,0-0.6,0-0.8,0c-0.1-0.1-0.3-0.2-0.4-0.4
		c-0.4-0.8-0.8-1.7-1.1-2.4c0-0.6,0-1.1,0-1.7c-0.2-0.3-0.3-0.7-0.5-1c-0.3-0.6-0.6-1.1-1.3-1.4c-0.3-0.1-0.6-0.5-0.9-0.8
		c0-1.2-0.2-2.3-0.7-3.4c0.1-0.6-0.6-0.9-0.7-1.4c-0.1-0.5-0.3-1-0.5-1.5c-0.1-0.2-0.1-0.3-0.2-0.4c-0.8-0.7-0.9-1.7-1.1-2.6
		c-0.5-1.6-0.7-3.3-1.3-4.9c0-1-0.6-2-0.4-3.1c-0.3-0.5-0.6-1-1-1.6c0-1,0-2.1,0-3.3c0.3-0.4,0.6-0.9,1.3-0.9
		c0.3,0.3,0.5,0.7,0.8,0.9c0.2,0,0.3,0.1,0.4,0.1c1-0.2,2,0.2,3,0.4c0.6,0.1,1.2,0.4,1.8,0.5c0.6,0.2,1.1,0.1,1.7,0.3
		c0.5,0.2,1.1,0.2,1.6,0c0.8-0.3,1.5-0.2,2.2-0.3c0.2,0,0.4-0.1,0.7-0.2c0.2,0.1,0.4,0.2,0.6,0.3c0.4,0.5,0.7,1.2,1.5,1.4
		c0,0.4,0.1,0.7,0,1c-0.4,1.3-0.4,1.4,0,2.6c-0.4,1.3-0.4,1.6-0.1,3.3c0,0.2,0,0.3,0.1,0.5c0.2,0.5-0.3,1-0.1,1.5s0,1.1,0,1.7
		c-0.2,0.3-0.4,0.8-0.6,1.3c0,0.7,0,1.5,0,2.3c0.2,0.3,0.4,0.8,0.6,1.2c0,0.4,0.1,0.9-0.2,1.4c-0.1,0.2-0.2,0.5-0.1,0.8
		c0.1,0.8-0.1,1.5-0.4,2.2c-0.3,0.8-0.4,1.5,0,2.3c0.1,0.2,0.1,0.6,0.1,0.8c-0.3,0.8-0.4,1.6-0.7,2.3c-0.2,0.5-0.4,1-0.7,1.5
		c-0.1,0.2-0.3,0.3-0.4,0.4c-0.5,0.2-0.9,0.2-1.3-0.2C135.1,195.2,134.7,195.4,134.4,195.5z"/>
	<path vector-effect="non-scaling-stroke" class="st0" d="M269.4,89.2c0.3-0.1,0.7-0.4,1.2-0.6c0.4-0.2,0.9-0.4,1.5-0.6
		c0.4,0,1,0,1.5,0c1.1-0.4,2.2-0.8,3.5-1.3c0.4,0,1,0,1.7,0c1.3,0.1,2.4-0.3,3.6-1c1.2,0,2.4,0,3.7,0c0.5,0,1,0,1.4-0.2
		c0.6-0.3,1.2-0.1,2.2,0.2c0.6-0.3,1.2-0.6,1.9-0.9c0.8-0.1,1.6,0.1,2.4,0.2c1,0.2,2,0.1,2.9,0c0.6,0,1.2-0.3,1.9-0.5
		c1.6-0.5,3.2-0.1,4.6,1c0,0.3,0,0.6,0,1.1c-0.3,0.2-0.6,0.6-1,0.9c-0.9,0.5-1.4,1.3-2.5,1.5c-0.4,0.5-0.9,1-1.2,1.4
		c-1.6,0.6-2.7,1.7-4,2.6c-0.2,0.1-0.3,0.4-0.6,0.8c-0.7,0.5-1.6,0.8-2.5,1.1c-1,0.3-1.4,1.3-2.8,1.6c-0.5,0-1.3,0-2.2,0
		c-0.5-0.5-1-1-1.8-1.3c-0.7-0.2-1.3-0.4-2.2-0.7c-0.7,0-1.7,0-2.7,0c-0.3-0.2-0.6-0.5-0.9-0.6s-0.7-0.2-1.2-0.4c-0.5,0-1.1,0-1.6,0
		c-0.7-0.2-1.3-0.5-2-0.6s-1.4,0-2,0c-1.1-0.7-2.2-1.3-3-1.9c-0.9-0.2-1.5,0.1-2.2,0.2c-0.6,0.1-1.2,0-1.8,0
		c-0.1-0.1-0.3-0.2-0.5-0.4c0-0.1,0-0.2,0.1-0.3c0.6-0.9,1.5-1.1,2.4-1.6C267.8,89.1,268.4,89.6,269.4,89.2z"/>
	<path vector-effect="non-scaling-stroke" class="st0" d="M100.4,63.2c0.6,0.4,1.4,0.5,1.9,1.3c-0.1,0.4-0.4,0.6-0.8,0.9
		c-0.6,0-1.2,0-1.8-0.2C99.1,65,98.4,65,97.9,65c-0.3,0.2-0.5,0.3-0.7,0.4c-0.7,0.3-1.3,0.7-2.1,0.8c-0.8,0.1-1.5,0.5-2.3,0.8
		c-0.2,0.1-0.4,0.1-0.8,0.2c-0.5,0.5-1.2,1-2,1.4c-1,0.5-1.9,1.2-3,1.6c-0.7,0.8-1.7,1.2-2.6,1.6c-0.3,0.1-0.6,0.2-1.1,0.4
		c-0.2,0.2-0.6,0.7-0.8,1c-0.5,0.2-0.8,0.3-0.9,0.4c-1.3,0.4-2.4-0.2-3.5-0.3c-0.3,0-0.7-0.3-1-0.6c-0.2-0.2-0.2-0.5-0.3-0.7
		c0.4-0.8,1-1.2,1.7-1.6c-0.2-1.2,0.6-2.4,0.2-3.6c0.2-0.3,0.4-0.6,0.6-0.8c0.2-0.5,0-1-0.1-1.4c0.6-0.6,1.2-1.2,1.8-1.8
		c-0.1-0.3-0.2-0.5-0.3-0.7c0.2-0.5,0.5-1,0.8-1.6c-0.3-0.4-0.5-0.9-0.8-1.4c0.7-0.6,1.1-1.3,1.4-2.2c-0.1-0.2-0.2-0.4-0.3-0.8
		c0-0.4,0.6-0.7,0.3-1.3c-0.4-0.4-0.7-0.8-1-1.2c0-0.2,0-0.4,0-0.6c0.3-0.3,0.6-0.6,1-1c-0.1-0.7,0.3-1.4,0.6-2.1
		c0.3,0,0.5-0.1,0.8-0.1c0.9,0,1.8,0,2.8,0c0.8,0.8,1.6,1.5,2.3,2.3c0.6,0.6,1.2,1.3,2,1.7c0.1,0,0.2,0.2,0.3,0.2
		c0.4,0.1,0.6,0.4,0.8,0.7c0.2,0.4,0.5,0.7,0.9,0.9c0.3,0.2,0.6,0.4,0.8,0.8c0.3,0.7,1,0.9,1.4,1.2c0.5,0.4,0.6,1.2,1.2,1.5
		c0.5,0.3,1,0.6,1.6,0.8c0.7,0.2,1.1,0.6,1.3,1.3C99.1,62,99.2,62,100.4,63.2z"/>
	<path vector-effect="non-scaling-stroke" class="st0" d="M155.5,66.2c0-0.7,0-1.2,0-1.7c-0.3-1-0.9-1.5-1.4-2
		c-0.1-0.2-0.1-0.2-0.1-0.3c0-0.3-0.1-0.5-0.1-0.9c-0.2-0.2-0.4-0.3-0.6-0.5c-0.3-0.9,0.7-1.6,0.2-2.5c-0.3-0.8-1.3-1-1.8-1.7
		c-0.1-0.4,0.3-0.5,0.5-0.6s0.3-0.3,0.4-0.4c0-0.2,0-0.3-0.1-0.4c-0.2-0.2-0.4-0.4-0.6-0.6c-0.2-0.2-0.6-0.1-0.6-0.6
		c0.3-0.4,0.9-0.2,1.2-0.5c1.1-0.2,2.2,0,3.2,0.4c1.2,0.5,2.3,1.2,3,2.4c0.3,0.5,0.6,0.9,1.1,1.1c0.5,0.3,1,0.7,1.2,1.2
		c0.2,0.3,0.4,0.7,0.7,0.9c0.7,0.4,1.1,1,1.4,1.5c0.9,0.6,1.8,1.1,2.5,1.5c0.3,0.5,0.5,0.9,0.7,1.4c0.8,0.4,1.4,1.2,2.5,1.3
		c0.6,0.6,1.5,0.9,2.2,1.2c0.1,0,0.1,0.2,0.2,0.3c-0.2,0.3-0.4,0.5-0.6,0.8c0.2,0.5,0.7,0.8,0.9,1.1c0.2,0.4,0.5,0.7,0.7,1
		c0.7,0.1,1.3,0.5,1.9,0.5c0.2,0,0.5,0.3,0.6,0.4c-0.1,0.4-0.2,0.7-0.3,1c0.2,0.2,0.4,0.4,0.7,0.5c0.9,0.1,1.5,0.6,2,1.2
		c0.3,0.3,0.6,0.7,0.7,0.8c0.8,0.3,1.3,0.5,1.8,0.7c0.2,0.5,0.1,0.8-0.3,1.1c-1.2,0.4-2.4,0.6-3.6,0.5c-0.6,0-1.2,0-1.7-0.3
		c-0.4-0.2-1-0.1-1.5-0.1c-0.1,0-0.2-0.1-0.3-0.1c-0.9-0.3-1.5-1-2.4-1.2s-1.7-0.6-2.6-0.9c-0.6-0.2-1.2-0.4-1.7-0.8
		c-1-0.8-2.2-0.8-3.3-1.1c-0.9,0.1-1.7-0.2-2.7-0.5c-0.5-0.5-1-1.1-1.6-1.8c0-0.3,0-0.7,0-1.1C157.3,67.6,156.6,66.8,155.5,66.2z"/>
	<path vector-effect="non-scaling-stroke" class="st0" d="M248.8,101.6c0-0.3,0.1-0.7,0.1-1.1c0.3-0.1,0.6-0.2,0.9-0.3
		c0.1-0.2,0.3-0.5,0.6-0.8c0.2-0.1,0.5-0.3,0.9-0.5c0.5,0.1,1.1,0.3,1.7,0.4c0.5,0.1,1.1,0,1.6,0.1c0.3,0,0.6,0.2,0.9,0.3
		c0.8,0.4,1.7,0.3,2.5,0.3c1.1,0.5,2.1,1.1,3.2,1.4c0.2,0.1,0.4,0.2,0.6,0.2c1.4-0.1,2.6,0.6,3.9,0.8c1.1,0.2,2.2,0.7,3.3,1
		c0.1,0.5-0.2,0.7-0.5,0.9c-0.2,0-0.5,0.1-0.7,0.1c-0.6,0.3-1.2,0.7-1.8,0.9c-0.7,0.2-1.3,0.5-1.9,0.9c-0.6,0.3-1.1,0.7-1.6,1
		c0.4,0.7,0.5,0.8,1.6,1.1c1,0.9,1.8,1.7,2.6,2.4c0,0.2,0,0.4,0,0.6c-0.5,0.7-1.1,1.2-1.8,1.8c-1,0-2.2,0-3.2,0c-0.6,0-1.2,0-1.8,0
		c-0.6,0-1.1,0.5-1.7,0.4c-0.5,0.4-1,0.3-1.6,0.3c-0.3,0-0.7,0-1,0c-0.8-0.1-1.5,0.1-2.2,0.4s-1.3,0.4-2.2,0.3
		c-0.2-0.2-0.3-0.4-0.5-0.7c-0.3-0.4-0.6-0.8-0.9-1c-1-0.5-2-0.4-2.9-1c0-0.2-0.1-0.4-0.2-0.7c-0.3-0.6-0.9-0.8-1.4-1.1
		c-0.2-0.6-0.3-1.3-0.8-1.8c-0.4-0.5-0.5-1.2-0.7-1.7c0.1-0.5,0.4-0.6,0.7-0.7c0.4-0.1,0.7-0.2,1-0.3c0.4-0.5,0.8-1,1.2-1.5
		c0-0.2,0.1-0.6,0.1-0.9C247.4,102.3,248.3,102.3,248.8,101.6z"/>
	<path vector-effect="non-scaling-stroke" class="st0" d="M266.9,118.7c0.5-0.3,1-0.6,1.6-1c0.5,0,1.1-0.1,1.8,0
		c0.7,0.1,1.3,0.4,2.1,0.6c0.2-0.1,0.6-0.3,0.9-0.2c1.1,0,2.2-0.3,3.2-0.7c0.6,0.3,1.3,0.3,1.8,0.8c0.7,0.6,1.8,0.9,2.3,1.8
		c0,0.4,0,0.9,0,1.5c0.3,0.2,0.6,0.5,1,0.9c0.1,0.3,0.3,0.8,0.5,1.3c0.2,0.4,0.5,0.8,0.8,1.3c0,0.2,0,0.5,0.1,0.8
		c0.7,1,1.7,1.9,2.2,3.1c0,0.3,0,0.7,0,1.1c-0.1,0.2-0.3,0.3-0.5,0.5c-1,0.1-2.1,0.1-3.2,0c-0.6,0-1.1-0.3-1.7-0.3s-1.2-0.1-1.7-0.3
		c-0.8-0.3-1.5-0.3-2.2-0.3c-0.6,0.2-1.1,0.4-1.8,0.6c-0.4,0-1,0-1.5,0c-1.2-0.3-2.1-1.3-3.5-1.3c-0.2-0.2-0.4-0.3-0.6-0.5
		c-0.9-1-1.9-1.3-3.1-1.4c-0.5,0-0.8-0.3-1.3-0.4c-0.3-0.3-0.6-0.7-0.9-1.1c-1.2-0.5-2.3-0.9-3.4-1.2c-0.6-1.5-1.9-2-3.1-2.6
		c0-0.9,0.8-0.9,1.2-1.2c0.5-0.4,1-0.6,1.4-0.8c1.1-0.2,2-0.3,2.8-0.6c0.4-0.1,0.8-0.2,1.3-0.2C264.3,118.7,265.6,118.7,266.9,118.7
		z"/>
	<path vector-effect="non-scaling-stroke" class="st0" d="M226.2,118.4c0.7,0.4,1.5,0.8,2.2,1.1c0,0.2,0,0.4,0,0.5
		c-0.8,0.6-1.5,1.1-2.2,1.7c-0.4,0.3-0.8,0.5-1.3,0.6c-0.3,0-0.5,0.2-0.8,0.3c-0.5,0-1,0-1.5,0c-0.5,0.2-0.9,0.4-1.4,0.7
		c-0.9,0-1.7,0-2.4,0c-1.1,0.3-0.9,1.4-1.6,1.9c-0.8,0-1.6,0-2.3,0c-0.7,0.3-1.3,0.6-2.1,1c-0.6,0-1.3,0-1.9,0c-0.7,0.4-1.3,0.7-2,1
		c-0.2,0-0.5,0-0.8,0c-0.1-0.1-0.3-0.3-0.5-0.5c0.2-0.3,0.4-0.5,0.6-0.9c-0.1-0.8-0.3-1.5-0.4-2.2c0.6-1,1.1-1.8,1.7-2.6
		c0-1,0-1.9,0-2.7c0.7-0.7,1.7-0.5,2.3-0.9c2,0.5,3.8,0.5,5.6-0.3c1.2,0.6,2.5,0.9,3.8,0.9c0.7,0,1.5-0.1,2.1,0.1
		C224.3,118.4,225.2,118.3,226.2,118.4z"/>
	<path vector-effect="non-scaling-stroke" class="st0" d="M310.7,91.7c0.6,0,1,0,1.3,0c0.7,0.3,1.3,0.5,2,0.8
		c0.7,0.7,1.5,1.4,2.5,2.2c0.3,0.7,1.3,1.4,1.5,2.4c0.4,0.3,0.8,0.6,1.2,1c0,0.2,0,0.4,0,0.8c-0.2,0.4-0.4,0.9-0.7,1.4
		c-0.7,0.6-1.5,1.1-1.9,1.9c-0.3,0.6-0.9,1-1.5,1.2c-1,0.2-1.8,0.8-2.4,1.6c-0.1,0.2-0.3,0.3-0.5,0.5c-1,0.1-1.9-0.3-2.7-0.8
		c-0.6-0.4-1.1-0.6-1.7-0.8c-0.8-0.3-1.5-0.6-2.2-1c-1.4-0.8-2.8-1.5-4.4-2c-0.5-0.1-0.9-0.4-1.3-0.6c-0.3-0.1-0.6-0.3-0.9-0.5
		c0-0.3,0-0.7,0-0.9c0.1-0.1,0.2-0.2,0.3-0.3c1.1-0.6,2.2-1.2,3.2-1.8c0.9-1,2.2-1.3,3.4-2.1c0.1-0.2,0.3-0.5,0.5-0.7
		s0.4-0.4,0.6-0.6c0.7-0.1,1.4-0.2,2-0.6C309.5,92.4,310.1,92,310.7,91.7z"/>
	<path vector-effect="non-scaling-stroke" class="st0" d="M153.2,163.5c0.7-0.3,1.1,0,1.6,0s1-0.2,1.6-0.3c1.3-0.7,2.7-1.3,4.4-1.2
		c0.2,0.1,0.3,0.3,0.4,0.4c0.2,0.4,0.1,0.8,0.1,1.3c-0.4,0.6-0.7,1.4-1.1,2c-0.4,0.6-0.7,1.3-1.1,2.1c0.1,0.7-0.2,1.4-0.5,2.3
		c-1.2,1.3-2.7,2.4-3.4,4.3c0,0.4,0,0.9,0,1.3c0,0.1,0,0.2-0.1,0.2c-0.3,0.3-0.5,0.6-0.8,0.8c-0.4,0-0.6,0.1-0.9,0.1
		c-0.6,0.4-1.2,0.9-1.8,1.3c-0.2,0-0.4,0-0.6,0c-0.7-0.9-1.5-1.8-2.2-2.7c-0.4-0.9-0.5-1.9-0.5-3c0-0.7,0.1-1.4-0.3-2.1
		c0-0.9,0-1.7,0-2.7c0.2-0.6,0.4-1.1,1.1-1.6C150.8,165.8,152.3,165.2,153.2,163.5z"/>
	<path vector-effect="non-scaling-stroke" class="st0" d="M195.8,129.6c-0.7,1-1.5,1.4-2.6,1.8c-0.7,0-1.6,0-2.4,0
		c-0.7-0.7-1.3-1.3-2.1-2.2c-0.1-0.2-0.3-0.6-0.5-1c-0.4-0.4-0.8-0.8-1.2-1.3c0.1-0.6,0.3-1.1,0.4-1.6c-0.7-1.6-1.4-3-2.6-4.2
		c0.1-0.3,0.1-0.6,0.2-1c0-0.1-0.1-0.3-0.2-0.6c0.4-0.4,0.7-0.8,1-1c0.9-0.3,1.6-0.5,2.4-0.7c0.3-0.1,0.7-0.1,1-0.1
		c1.5,0,2.9,0,4.4,0c0.5-0.2,0.9-0.4,1.4-0.7c0.4,0,0.8,0,1.3,0c0.3,0.1,0.6,0.3,0.8,0.4c0.5,0.8,1,1.4,1.6,2.3
		c0.1,0.2-0.3,0.9,0.2,1.3c-0.3,1-0.2,2-1,2.6c0,0.6,0,1,0,1.5C197.1,126.6,196,127.8,195.8,129.6z"/>
	<path vector-effect="non-scaling-stroke" class="st0" d="M92.9,117.1c-0.3,0.1-0.5,0.2-0.7,0.3c-1,0.6-1.8,0.3-2.5-0.4
		c-0.6-0.6-1.2-1.1-1.6-1.8c-0.2-0.3-0.5-0.6-0.7-0.8c-0.4-0.7,0.2-1.2,0.3-1.8c-0.2-0.4-0.4-0.9-0.7-1.4c0-0.3,0-0.7,0.1-1.1
		s0.2-0.7,0.4-1.1c0.3-0.2,0.7-0.4,1-0.6c0.8,0,1.5,0,2.2,0c1.2,0.2,2.2,1,3.3,1.6c0.7,0,1.4,0,2.1,0c0.9,0.5,1.4,1.4,2,2.2
		c0.6,0,1.2,0.1,1.9,0.1c0.4,0.1,0.9,0.2,1.2,0.5c0.5,0.5,1.1,0.4,1.5,0.8c0.1,0.1,0.1,0.2,0.2,0.3c0,0.3-0.2,0.5-0.5,0.7
		c-1,0.2-1.9,0.5-2.8,0.4c-0.3,0.2-0.7,0.5-1,0.7c-0.8,0.6-1.8,0.8-2.7,0.9c-0.5,0.1-1,0.2-1.4,0.4C94.1,117,93.5,117.1,92.9,117.1z
		"/>
	<path vector-effect="non-scaling-stroke" class="st0" d="M70.1,80.6c0.5,0,1,0,1.4,0c0.1-0.1,0.2-0.3,0.2-0.4
		c0-0.6,0.4-0.9,0.9-1.2c0.3,0,0.7,0,1.2,0c0.9,0.3,1.5,1,2.2,1.8c0,0.2,0,0.5,0,0.9c-0.4,0.6-1,1.2-1,2.1c-0.8,1.1-1.5,2.3-3,2.8
		c-0.7,0-1.5,0-2.5,0c-0.3,0.2-0.6,0.5-0.9,0.6c-0.3,0.2-0.7,0.2-1.2,0.3c-0.1-0.1-0.3-0.3-0.5-0.4c-0.1-0.6,0.5-0.8,0.6-1.2
		c-0.4-1.1-1-2.2-2.1-2.6c-0.3-0.6-0.2-0.9,0.3-1.3C67.2,81.9,68.7,81.5,70.1,80.6z"/>
	<path vector-effect="non-scaling-stroke" class="st0" d="M277.9,109.6c0-0.2,0-0.3,0-0.5c0.6-0.3,1.2-0.7,1.9-0.9
		c0.4-0.1,0.8-0.2,1.1-0.3c1.9-1.1,4-1.5,5.7-2.9c0.2-0.2,0.5-0.2,0.8-0.4c0.3,0,0.7,0,1,0c0.2,0.2,0.3,0.5,0.2,0.6
		c-0.2,0.2-0.4,0.3-0.7,0.5c-0.4,0.2-0.7,0.5-0.9,0.9c0.3,0.9,1.1,1.1,1.7,1.4c0.6,1,0.6,1,0.5,1.8c-0.9,0.4-1.7,0.8-2.7,0.9
		c-0.8,0-1.6,0.2-2.3,0.5c-0.3,0.1-0.6,0.2-1,0.2c-1,0-2.1,0-3.1,0C279.3,110.8,278.4,110.5,277.9,109.6z"/>
	<path vector-effect="non-scaling-stroke" class="st0" d="M102.1,131.8c-1.7-0.3-2.1-1.5-2.6-2.8c0.1-0.3,0.3-0.6,0.4-1
		c0.1-0.1,0.3-0.1,0.4-0.2c1.1-0.7,2.5-0.9,3.7-1.3c0.1,0,0.3,0,0.5,0c0.1,0.1,0.3,0.2,0.4,0.3c0.1,0.1,0.2,0.2,0.2,0.3
		c-0.2,0.7,0.6,1.3,0.3,2.1c-0.4,0.7-0.9,1.4-1.3,2.1c-0.4,0.1-0.8,0.1-1.1,0.2C102.6,131.6,102.2,131.7,102.1,131.8z"/>
</g>
</svg>
